<?xml version="1.0" encoding="UTF-8" standalone="no"?>
<svg
   width="256"
   height="256"
   viewBox="0 0 256 256"
   fill="none"
   version="1.1"
   id="svg1"
   sodipodi:docname="background.svg"
   xml:space="preserve"
   xmlns:inkscape="http://www.inkscape.org/namespaces/inkscape"
   xmlns:sodipodi="http://sodipodi.sourceforge.net/DTD/sodipodi-0.dtd"
   xmlns="http://www.w3.org/2000/svg"
   xmlns:svg="http://www.w3.org/2000/svg"><sodipodi:namedview
     id="namedview1"
     pagecolor="#505050"
     bordercolor="#eeeeee"
     borderopacity="1"
     inkscape:showpageshadow="0"
     inkscape:pageopacity="0"
     inkscape:pagecheckerboard="0"
     inkscape:deskcolor="#505050"><inkscape:page
       x="0"
       y="0"
       width="256"
       height="256"
       id="page2"
       margin="0"
       bleed="0" /></sodipodi:namedview><defs
     id="defs1" /><rect
     width="256"
     height="256"
     rx="60"
     fill="#242938"
     id="rect1"
     x="0"
     y="0" /><g
     style="line-height:1;fill:currentColor;fill-rule:evenodd"
     id="g1"
     transform="matrix(9.8711565,0,0,8.2493919,8.9525345,19.367409)"><path
       d="m 8.0331967,1.0978998 c 0.2222859,0.092443 0.4229607,0.2447029 0.6051117,0.445903 0.3035849,0.3327958 0.5598312,0.8091506 0.7553605,1.3735985 0.1965583,0.5677105 0.3241669,1.1963249 0.3725347,1.8271144 A 5.201079,5.4965692 0 0 1 11.874833,4.0528224 l 0.05248,-0.00435 c 0.895318,-0.07613 1.780345,0.094618 2.552171,0.5155073 0.10394,0.057641 0.205821,0.1196325 0.305644,0.1848865 C 14.836578,4.13004 14.962133,3.515564 15.155604,2.9609043 15.351133,2.3953689 15.60738,1.9201016 15.909936,1.5862182 A 1.7185995,1.8162387 0 0 1 16.51608,1.140315 c 0.264479,-0.1087568 0.545424,-0.128333 0.819165,-0.045678 0.41267,0.1239828 0.766681,0.4002251 1.045567,0.8015377 0.255217,0.3665105 0.44663,0.8363399 0.577326,1.3997002 0.236694,1.0157886 0.277858,2.3524098 0.118347,3.9641857 l 0.05454,0.043503 0.02676,0.020664 c 0.77903,0.6264392 1.321366,1.5193326 1.608486,2.555785 0.447659,1.6172134 0.222285,3.4312774 -0.549541,4.4459784 l -0.01852,0.02284 0.0021,0.0033 c 0.429135,0.828727 0.689498,1.704219 0.745069,2.610164 l 0.0021,0.03263 c 0.06586,1.15826 -0.20582,2.324133 -0.837688,3.469342 l -0.0072,0.01088 0.01029,0.0261 c 0.485736,1.258317 0.638043,2.525333 0.450747,3.791263 l -0.0062,0.04241 a 0.66994508,0.70800683 0 0 1 -0.768739,0.582936 0.66685777,0.70474413 0 0 1 -0.555715,-0.806975 c 0.17186,-1.123458 0.01029,-2.250179 -0.493968,-3.396475 a 0.66171227,0.69930629 0 0 1 0.04116,-0.67103 l 0.0041,-0.0065 c 0.621577,-1.004913 0.878853,-1.99025 0.823281,-2.958185 -0.04734,-0.847216 -0.334458,-1.679206 -0.823281,-2.472043 a 0.66274137,0.70039386 0 0 1 0.185238,-0.963585 l 0.0093,-0.0065 c 0.250072,-0.172923 0.480591,-0.614476 0.596879,-1.218076 a 4.3520703,4.5993255 0 0 0 -0.09776,-2.146859 C 19.266869,9.5102391 18.880956,8.8750993 18.340677,8.4411597 17.728362,7.9474037 16.91743,7.7092263 15.891416,7.7777431 A 0.67200328,0.71018197 0 0 1 15.241024,7.3742553 C 14.917886,6.6510226 14.446557,6.1333401 13.85894,5.8125076 A 3.3836857,3.5759239 0 0 0 12.035372,5.4514349 C 10.754141,5.5591042 9.6241876,6.322577 9.2876714,7.2850748 A 0.67097418,0.7090944 0 0 1 8.6599195,7.7472912 C 7.5618682,7.7494663 6.7118303,8.0213584 6.090253,8.5118516 5.553062,8.9360031 5.1867019,9.5287278 4.9932308,10.23891 a 4.1884431,4.4264022 0 0 0 -0.069979,2.051153 c 0.1152594,0.606863 0.3406326,1.10932 0.5989371,1.380124 l 0.00823,0.0076 c 0.2181695,0.225127 0.2644791,0.576411 0.1121721,0.853741 -0.3704766,0.676467 -0.6473049,1.684643 -0.6925853,2.653666 -0.051455,1.107145 0.1914128,2.068555 0.7399239,2.758073 l 0.016466,0.02066 a 0.66171227,0.69930629 0 0 1 0.097765,0.750422 C 5.2114003,22.0586 5.0292494,23.163569 5.2258078,24.033624 A 0.67097418,0.7090944 0 0 1 3.919878,24.357719 C 3.6698063,23.250574 3.839608,21.98247 4.406643,20.553406 L 4.42105,20.515346 4.41282,20.502296 A 4.4652714,4.718958 0 0 1 3.7974149,19.078663 l -0.00515,-0.02066 A 5.9317411,6.2687425 0 0 1 3.6101184,17.11669 c 0.04528,-0.989687 0.2860902,-2.0033 0.6401011,-2.816801 l 0.012349,-0.02828 -0.00206,-0.0022 C 3.9589838,13.814834 3.7356688,13.232985 3.6121766,12.589144 l -0.00515,-0.0261 A 5.5077512,5.8206645 0 0 1 3.7027375,9.8549982 C 3.9723621,8.8598734 4.5023494,8.0050448 5.2834375,7.3873062 5.3451835,7.3383656 5.4100169,7.289425 5.4748503,7.2437472 5.3112232,5.620008 5.3523873,4.2746863 5.5901097,3.2523722 5.7208056,2.689012 5.9132476,2.2191825 6.1684647,1.8526721 6.4463222,1.452447 6.8003331,1.1762047 7.2130028,1.0511344 7.4867438,0.9684792 7.7687176,0.9869679 8.0331967,1.0968124 Z m 4.2357813,9.8859942 c 0.963239,0 1.852383,0.340409 2.517183,0.929871 0.648334,0.573148 1.034247,1.343146 1.034247,2.109882 0,0.96576 -0.417815,1.718357 -1.165972,2.199062 -0.638043,0.407838 -1.493227,0.605776 -2.472931,0.605776 -1.038364,0 -1.925449,-0.28168 -2.5655502,-0.798275 C 8.9809992,15.519053 8.62493,14.801258 8.62493,14.023647 c 0,-0.768911 0.4095824,-1.541084 1.0867312,-2.116408 0.6874398,-0.584024 1.5951078,-0.923345 2.5573168,-0.923345 z m 0,0.974461 a 3.1593416,3.3388341 0 0 0 -1.971758,0.706919 c -0.4744158,0.4024 -0.7430113,0.90812 -0.7430113,1.35946 0,0.465479 0.2161113,0.901594 0.6277523,1.233303 0.468241,0.377386 1.15671,0.595987 1.999544,0.595987 0.822252,0 1.515866,-0.159873 1.988224,-0.463304 0.476474,-0.304519 0.720371,-0.746072 0.720371,-1.367073 0,-0.460042 -0.253159,-0.967936 -0.702876,-1.365986 -0.498085,-0.440465 -1.173176,-0.699306 -1.918246,-0.699306 z m 0.681266,1.315957 0.0041,0.0044 c 0.123492,0.164222 0.09777,0.4024 -0.05763,0.532908 l -0.300497,0.250141 v 0.485055 a 0.38591306,0.40783804 0 0 1 -0.386942,0.405663 0.38591306,0.40783804 0 0 1 -0.386943,-0.405663 v -0.500281 l -0.278886,-0.23709 a 0.35709822,0.37738613 0 0 1 -0.05351,-0.532909 0.36327283,0.38391154 0 0 1 0.508376,-0.05547 l 0.221257,0.187062 0.226402,-0.189237 a 0.36327283,0.38391154 0 0 1 0.50426,0.05547 z M 7.7635721,11.187269 c 0.4919105,0 0.892231,0.424152 0.892231,0.947272 A 0.89531831,0.94618425 0 0 1 7.762543,13.081813 0.89531831,0.94618425 0 0 1 6.870312,12.135628 0.89531831,0.94618425 0 0 1 7.762543,11.187269 Z m 8.9593579,0 c 0.493968,0 0.89326,0.424152 0.89326,0.947272 a 0.89531831,0.94618425 0 0 1 -0.89326,0.947272 0.89531831,0.94618425 0 0 1 -0.892231,-0.946185 0.89531831,0.94618425 0 0 1 0.892231,-0.948359 z m -9.1682655,-8.7734118 -0.00309,0.00218 a 0.67817789,0.71670738 0 0 0 -0.293294,0.2588412 l -0.00515,0.00653 C 7.1111217,2.8869494 6.9876295,3.1892933 6.8950104,3.5862556 6.7200632,4.3388528 6.6727245,5.3600792 6.7674018,6.6118701 7.2099155,6.4726614 7.6925641,6.3856559 8.2122603,6.3541165 l 0.010291,-0.00109 0.019553,-0.036977 C 8.2894429,6.226871 8.3398689,6.1409531 8.3944113,6.0561228 8.5209908,5.2176078 8.4170515,4.2159576 8.1340486,3.3981064 7.996149,3.0022316 7.8284055,2.6911871 7.6678656,2.5139135 A 0.64627574,0.68299277 0 0 0 7.5577518,2.4160324 Z m 9.4409775,0.043503 -0.0021,0.00109 A 0.64627574,0.68299277 0 0 0 16.88347,2.5563287 C 16.72293,2.7336023 16.554157,3.0457343 16.417287,3.4416091 16.118847,4.3051382 16.019024,5.37313 16.180593,6.2388342 l 0.05969,0.1054942 0.0082,0.015226 h 0.03087 A 5.3348622,5.637953 0 0 1 17.78805,6.5901187 C 17.876553,5.3676922 17.827156,4.3682171 17.656325,3.6297584 17.563706,3.232796 17.440214,2.9304521 17.297168,2.7249017 l -0.0041,-0.00653 a 0.67817789,0.71670738 0 0 0 -0.29331,-0.2599242 h -0.0041 z"
       id="path1"
       style="fill:#ffffff;stroke-width:1.05793" /></g></svg>
