<?xml version="1.0" encoding="UTF-8"?>
<svg id="Layer_1" data-name="Layer 1" xmlns="http://www.w3.org/2000/svg" viewBox="0 0 256 256">
  <defs>
    <style>
      .cls-1 {
        fill: #000;
      }

      .cls-1, .cls-2 {
        stroke-width: 0px;
      }

      .cls-2 {
        fill: #fff;
      }
    </style>
  </defs>
  <rect class="cls-2" width="256" height="256" rx="60" ry="60"/>
  <path class="cls-1" d="M71.75,5.7c-2.24.36-4.92,1.53-6.81,2.98-5.73,4.35-10.17,13.59-12.04,25.1-.71,4.35-1.19,10.39-1.19,15,0,5.44.64,12.39,1.55,17.19.21,1.07.31,2.01.22,2.08-.07.07-.91.76-1.86,1.51-3.23,2.58-6.93,6.55-9.48,10.19-4.89,6.93-8.05,14.81-9.38,23.35-.52,3.37-.65,10.18-.24,13.56.91,7.78,3.25,14.35,7.26,20.37l1.31,1.94-.38.64c-2.68,4.51-4.97,11.03-6.04,17.29-.84,4.95-.95,6.28-.95,12.92s.09,8.02.88,12.65c.95,5.54,2.87,11.41,5.02,15.31.71,1.27,2.43,3.92,2.63,4.06.07.03-.14.67-.46,1.41-2.48,5.42-4.59,12.63-5.47,18.7-.62,4.16-.71,5.51-.71,9.89,0,5.59.31,8.31,1.48,12.77l.17.65h14.74l-.48-.91c-2.98-5.51-3.25-15.72-.69-25.93,1.17-4.71,2.49-8.17,4.97-12.94l1.48-2.89v-1.77c0-1.65-.03-1.84-.57-2.92-.41-.83-.96-1.53-1.94-2.49-1.67-1.62-2.87-3.32-3.84-5.42-4.23-9.19-5.06-22.83-2.08-34.46,1.24-4.85,3.29-9.17,5.44-11.53,1.46-1.62,2.22-3.42,2.22-5.3s-.69-3.54-2.24-5.21c-4.44-4.75-7.17-10.53-8.15-17.26-1.39-9.58,1.14-20.03,6.88-28.3,5.63-8.12,13.52-13.33,22.35-14.73,1.98-.33,5.68-.28,7.74.1,2.25.4,3.66.28,5.11-.41,1.79-.84,2.68-1.89,3.73-4.3.93-2.15,1.65-3.32,3.6-5.75,2.34-2.91,4.59-4.89,8.21-7.28,4.13-2.7,8.83-4.66,13.51-5.61,1.7-.34,2.49-.4,5.68-.4s3.97.05,5.68.4c6.86,1.39,13.68,4.94,19.11,9.96,1.17,1.08,3.97,4.56,4.87,6,.34.57.95,1.77,1.32,2.67,1.05,2.41,1.94,3.46,3.73,4.3,1.39.67,2.86.81,5.02.45,3.42-.58,6.06-.53,9.41.15,11.42,2.31,21.37,11.72,25.77,24.33,3.84,11.06,2.75,22.64-2.96,31.48-.96,1.5-1.93,2.7-3.32,4.18-3.01,3.22-3.01,7.21-.02,10.51,4.92,5.38,8,18.63,7.07,30.31-.62,7.71-2.6,14.61-5.32,18.51-.48.69-1.48,1.86-2.24,2.58-.98.96-1.53,1.67-1.94,2.49-.53,1.08-.57,1.27-.57,2.92v1.77l1.48,2.89c2.48,4.77,3.8,8.22,4.97,12.94,2.53,10.06,2.31,20.08-.58,25.77-.24.48-.45.93-.45.98s3.29.09,7.31.09h7.29l.19-.74c.1-.4.28-1,.36-1.34.19-.76.57-2.99.88-5.14.29-2.17.29-10.15,0-12.56-1.1-8.74-2.94-15.67-5.95-22.23-.33-.74-.53-1.38-.46-1.41.09-.05.57-.74,1.08-1.51,3.75-5.68,6.06-12.82,7.23-22.25.31-2.6.31-13.76,0-16.26-.83-6.43-1.82-10.8-3.48-15.23-.69-1.84-2.51-5.73-3.29-6.98l-.38-.64,1.31-1.94c4.01-6.02,6.35-12.59,7.26-20.37.41-3.37.28-10.18-.24-13.56-1.34-8.55-4.49-16.4-9.38-23.35-2.55-3.63-6.25-7.6-9.48-10.19-.95-.76-1.79-1.45-1.86-1.51-.09-.07.02-1.02.22-2.08,2.08-10.86,2.01-24.4-.17-34.98-1.89-9.22-5.33-16.55-9.77-20.78-3.54-3.37-7.16-4.82-11.49-4.54-9.94.58-17.96,12.03-21.13,30.06-.52,2.91-.96,6.31-.96,7.24,0,.36-.07.65-.15.65s-.76-.34-1.48-.77c-7.67-4.54-16.21-6.97-24.52-6.97s-16.84,2.43-24.52,6.97c-.72.43-1.39.77-1.48.77s-.15-.29-.15-.65c0-.96-.46-4.47-.96-7.24-2.87-16.19-9.46-26.91-18.22-29.61-1.2-.36-4.63-.6-5.85-.41ZM74.68,19.7c2.48,1.96,5.23,7.57,6.81,13.85.29,1.14.6,2.44.69,2.92.07.46.26,1.51.41,2.32.67,3.65.98,7.59,1.02,12.39l.02,4.73-1.19,1.75-1.19,1.77h-2.77c-3.23,0-6.45.41-9.53,1.24-1.1.28-2.17.55-2.37.6-.33.07-.38-.03-.57-1.45-1.02-7.66-.96-16.14.15-23.19,1.24-7.86,4.13-14.98,6.95-17.08.67-.5.79-.48,1.57.14ZM172.78,19.58c1.7,1.26,3.58,4.59,4.97,8.86,2.8,8.53,3.6,20.25,2.12,31.4-.19,1.41-.24,1.51-.57,1.45-.21-.05-1.27-.33-2.37-.6-3.08-.83-6.3-1.24-9.53-1.24h-2.77l-1.19-1.77-1.19-1.75.02-4.73c.03-6.68.65-11.89,2.13-17.69,1.57-6.23,4.34-11.84,6.8-13.8.77-.62.89-.64,1.58-.12Z"/>
  <path class="cls-1" d="M120.27,106.17c-3.73.36-4.75.5-6.54.86-2.91.6-6.8,1.94-9.5,3.27-9.39,4.59-15.86,12.25-17.84,21.11-.4,1.75-.45,2.34-.45,5.3s.05,3.56.43,5.23c2.63,11.58,13.3,20.13,27.1,21.69,2.99.33,15.93.33,18.92,0,11.08-1.26,20.61-7.26,24.89-15.69,1.14-2.25,1.69-3.72,2.2-6,.38-1.67.43-2.31.43-5.23s-.05-3.54-.45-5.3c-2.87-12.87-15.36-23-30.68-24.93-2-.24-7.23-.45-8.53-.31ZM126.7,115.53c5.11.55,10.25,2.37,14.38,5.13,2.22,1.48,5.35,4.58,6.69,6.61,1.65,2.51,2.6,5.08,3.03,8.19.19,1.43.09,2.51-.43,4.82-.81,3.44-3.32,7.04-6.71,9.55-1.58,1.15-4.87,2.82-6.88,3.48-3.82,1.22-6.31,1.45-15.23,1.38-5.81-.05-6.85-.1-8.52-.41-5.69-1.07-10.2-3.34-13.47-6.8-2.65-2.79-3.85-5.33-4.51-9.45-.29-1.91.26-5.08,1.38-7.74,1.36-3.25,4.87-7.29,8.34-9.62,4.03-2.68,9.32-4.59,14.19-5.11,1.88-.21,5.85-.21,7.72-.02Z"/>
  <path class="cls-1" d="M116.36,128.09c-1.31.71-2.22,2.49-1.94,3.82.31,1.43,1.57,2.87,3.53,4.06,1.05.64,1.12.72,1.17,1.36.03.38-.1,1.46-.29,2.43-.21.95-.36,1.94-.36,2.22.02.74.71,1.94,1.43,2.53.64.52.76.53,2.55.58,1.63.05,1.98.02,2.63-.29,1.69-.83,2.12-2.34,1.5-5.25-.52-2.43-.41-2.8.88-3.54,1.36-.79,2.8-2.18,3.23-3.13.83-1.81.07-3.85-1.75-4.8-.45-.22-1-.33-1.81-.33-1.26,0-2.06.29-3.54,1.24l-.84.53-.53-.33c-2.18-1.29-2.58-1.45-3.91-1.43-.95,0-1.46.09-1.93.33Z"/>
  <path class="cls-1" d="M74.59,108.12c-3.05.96-5.32,3.2-6.49,6.38-.57,1.51-.84,3.91-.6,5.2.57,3.08,3.1,5.88,5.97,6.66,3.61.95,6.31.33,8.71-2.05,1.39-1.36,2.15-2.55,2.91-4.47.55-1.36.58-1.6.58-3.53l.02-2.06-.72-1.48c-1.15-2.34-3.23-4.08-5.64-4.71-1.36-.34-3.54-.33-4.73.07Z"/>
  <path class="cls-1" d="M166.48,108.06c-2.36.64-4.46,2.39-5.57,4.7l-.72,1.48.02,2.06c0,1.93.03,2.17.58,3.53.76,1.93,1.51,3.11,2.91,4.47,2.39,2.37,5.09,2.99,8.71,2.05,2.08-.55,4.16-2.31,5.16-4.35.86-1.74,1.07-2.99.79-4.97-.64-4.52-3.29-7.81-7.23-8.96-1.15-.34-3.39-.34-4.65,0Z"/>
</svg>