<?xml version="1.0" encoding="UTF-8" standalone="no"?>
<svg
   width="256"
   height="256"
   viewBox="0 0 256 256"
   fill="none"
   version="1.1"
   id="svg10"
   sodipodi:docname="seaborn.svg"
   inkscape:version="1.1.2 (0a00cf5339, 2022-02-04)"
   xmlns:inkscape="http://www.inkscape.org/namespaces/inkscape"
   xmlns:sodipodi="http://sodipodi.sourceforge.net/DTD/sodipodi-0.dtd"
   xmlns="http://www.w3.org/2000/svg"
   xmlns:svg="http://www.w3.org/2000/svg">
  <sodipodi:namedview
     id="namedview12"
     pagecolor="#505050"
     bordercolor="#ffffff"
     borderopacity="1"
     inkscape:pageshadow="0"
     inkscape:pageopacity="0"
     inkscape:pagecheckerboard="1"
     showgrid="false"
     inkscape:zoom="1.3534466"
     inkscape:cx="135.57979"
     inkscape:cy="130.40781"
     inkscape:window-width="1296"
     inkscape:window-height="704"
     inkscape:window-x="70"
     inkscape:window-y="27"
     inkscape:window-maximized="1"
     inkscape:current-layer="svg10"
     showguides="true"
     inkscape:guide-bbox="true">
    <sodipodi:guide
       position="125.60525,160.68778"
       orientation="1,0"
       id="guide145" />
    <sodipodi:guide
       position="-95.312222,129.65589"
       orientation="0,-1"
       id="guide147" />
  </sodipodi:namedview>
  <defs
     id="defs2" />
  <rect
     width="256"
     height="256"
     rx="60"
     fill="#242938"
     id="rect4"
     sodipodi:insensitive="true"
     x="0"
     y="0" />
  <g
     id="g712"
     transform="matrix(0.73573756,0,0,0.73573756,34.737869,32.171155)">
    <path
       d="m 128.90164,2.3933895 c -16.37528,0 -32.591341,3.225575 -47.720129,9.4921245 C 66.052723,18.152063 52.30541,27.337724 40.726338,38.916798 29.147265,50.495869 19.961604,64.243182 13.695055,79.371971 7.4285054,94.500758 4.2029303,110.71682 4.2029303,127.0921 c 0,16.37529 3.2255751,32.59135 9.4921247,47.72014 6.266549,15.12878 15.45221,28.8761 27.031284,40.45517 11.579071,11.57907 25.326384,20.76473 40.455172,27.03128 15.128788,6.26655 31.344849,9.49213 47.720129,9.49213 16.37529,0 32.59135,-3.22558 47.72014,-9.49213 15.12878,-6.26655 28.8761,-15.45221 40.45517,-27.03128 11.57907,-11.57907 20.76473,-25.32639 27.03128,-40.45517 6.06441,-14.64077 9.28086,-30.29979 9.48206,-46.13596 l 0.0101,-1.58418 -0.0101,-1.58417 C 253.38909,109.67175 250.17264,94.012732 244.10823,79.371971 237.84168,64.243182 228.65602,50.495869 217.07695,38.916798 205.49788,27.337724 191.75056,18.152063 176.62178,11.885514 161.49299,5.6189645 145.27693,2.3933895 128.90164,2.3933895 Z"
       fill="#ffffff"
       id="path512" />
    <g
       transform="translate(11.703974,10.272144)"
       fill="#afdad2"
       stroke="#ffffff"
       stroke-width="0.25"
       id="g698">
      <path
         d="m 88.723056,63.708452 c 1.273778,0 2.495556,-0.506076 3.396254,-1.406775 0.900696,-0.900696 1.406773,-2.122473 1.406773,-3.396251 0,-1.273776 -0.506077,-2.495556 -1.406773,-3.396252 -0.900698,-0.900696 -2.122476,-1.406775 -3.396254,-1.406775 -1.273776,0 -2.495555,0.506079 -3.396252,1.406775 -0.900696,0.900696 -1.406773,2.122476 -1.406773,3.396252 0,1.273778 0.506077,2.495555 1.406773,3.396251 0.900697,0.900699 2.122476,1.406775 3.396252,1.406775 z"
         id="path514" />
      <path
         d="m 78.380255,70.949823 c 1.233667,0 2.416969,-0.49014 3.289301,-1.362473 0.872335,-0.872334 1.362475,-2.055637 1.362475,-3.289302 0,-1.233667 -0.49014,-2.416969 -1.362475,-3.289301 -0.872332,-0.872335 -2.055634,-1.362475 -3.289301,-1.362475 -1.233665,0 -2.416967,0.49014 -3.289302,1.362475 -0.872333,0.872332 -1.362473,2.055634 -1.362473,3.289301 0,1.233665 0.49014,2.416968 1.362473,3.289302 0.872335,0.872333 2.055637,1.362473 3.289302,1.362473 z"
         id="path516" />
      <path
         d="m 68.431018,75.558772 c 1.161524,0 2.275632,-0.46148 3.096955,-1.282802 0.821322,-0.821322 1.282801,-1.93543 1.282801,-3.096954 0,-1.161524 -0.461479,-2.275632 -1.282801,-3.096954 -0.821323,-0.821322 -1.935431,-1.282802 -3.096955,-1.282802 -1.161524,0 -2.275632,0.46148 -3.096954,1.282802 -0.821322,0.821322 -1.282801,1.93543 -1.282801,3.096954 0,1.161524 0.461479,2.275632 1.282801,3.096954 0.821322,0.821322 1.93543,1.282802 3.096954,1.282802 z"
         id="path518" />
      <path
         d="m 97.447903,57.98648 c 1.3115,0 2.569467,-0.521065 3.496837,-1.448436 0.92737,-0.927372 1.44843,-2.185334 1.44843,-3.496835 0,-1.311502 -0.52106,-2.569464 -1.44843,-3.496836 -0.92737,-0.927371 -2.185337,-1.448436 -3.496837,-1.448436 -1.311502,0 -2.569463,0.521065 -3.496834,1.448436 -0.927372,0.927372 -1.448436,2.185334 -1.448436,3.496836 0,1.311501 0.521064,2.569463 1.448436,3.496835 0.927371,0.927371 2.185332,1.448436 3.496834,1.448436 z"
         id="path520" />
      <path
         d="m 60.966849,65.172429 c 0.881248,0 1.726524,-0.350124 2.34966,-0.973261 0.623137,-0.623137 0.973262,-1.46841 0.973262,-2.34966 0,-0.881249 -0.350125,-1.726524 -0.973262,-2.349661 -0.623136,-0.623137 -1.468412,-0.973261 -2.34966,-0.973261 -0.88125,0 -1.726524,0.350124 -2.349661,0.973261 -0.623137,0.623137 -0.973261,1.468412 -0.973261,2.349661 0,0.88125 0.350124,1.726523 0.973261,2.34966 0.623137,0.623137 1.468411,0.973261 2.349661,0.973261 z"
         id="path522" />
      <path
         d="m 52.761383,83.37646 c 1.046983,0 2.051224,-0.415972 2.791551,-1.1563 0.740328,-0.740328 1.156298,-1.744569 1.156298,-2.79155 0,-1.046983 -0.41597,-2.051224 -1.156298,-2.791552 -0.740327,-0.740327 -1.744568,-1.156299 -2.791551,-1.156299 -1.046982,0 -2.051223,0.415972 -2.79155,1.156299 -0.74033,0.740328 -1.1563,1.744569 -1.1563,2.791552 0,1.046981 0.41597,2.051222 1.1563,2.79155 0.740327,0.740328 1.744568,1.1563 2.79155,1.1563 z"
         id="path524" />
      <path
         d="m 57.782852,52.116011 c 1.261588,0 2.471675,-0.501234 3.363751,-1.39331 0.892077,-0.892078 1.39331,-2.102163 1.39331,-3.36375 0,-1.261588 -0.501233,-2.471673 -1.39331,-3.363751 -0.892076,-0.892076 -2.102163,-1.39331 -3.363751,-1.39331 -1.261587,0 -2.471672,0.501234 -3.36375,1.39331 -0.892076,0.892078 -1.39331,2.102163 -1.39331,3.363751 0,1.261587 0.501234,2.471672 1.39331,3.36375 0.892078,0.892076 2.102163,1.39331 3.36375,1.39331 z"
         id="path526" />
      <path
         d="m 70.619839,61.018808 c 0.975679,0 1.911528,-0.387642 2.601436,-1.07755 0.68991,-0.68991 1.07755,-1.625758 1.07755,-2.601437 0,-0.975678 -0.38764,-1.911526 -1.07755,-2.601436 -0.689908,-0.689908 -1.625757,-1.07755 -2.601436,-1.07755 -0.975677,0 -1.911526,0.387642 -2.601434,1.07755 -0.68991,0.68991 -1.07755,1.625758 -1.07755,2.601436 0,0.975679 0.38764,1.911527 1.07755,2.601437 0.689908,0.689908 1.625757,1.07755 2.601434,1.07755 z"
         id="path528" />
      <path
         d="m 134.06408,50.037633 c 1.14093,0 2.23529,-0.453298 3.04205,-1.26006 0.80677,-0.806763 1.26006,-1.901121 1.26006,-3.042056 0,-1.140934 -0.45329,-2.235292 -1.26006,-3.042055 -0.80676,-0.806762 -1.90112,-1.26006 -3.04205,-1.26006 -1.14094,0 -2.2353,0.453298 -3.04206,1.26006 -0.80676,0.806763 -1.26006,1.901121 -1.26006,3.042055 0,1.140935 0.4533,2.235293 1.26006,3.042056 0.80676,0.806762 1.90112,1.26006 3.04206,1.26006 z"
         id="path530" />
      <path
         d="m 43.830601,72.843991 c 0.691595,0 1.354958,-0.274775 1.843991,-0.763806 0.489033,-0.489032 0.763806,-1.152396 0.763806,-1.843992 0,-0.691595 -0.274773,-1.354958 -0.763806,-1.843991 -0.489033,-0.489033 -1.152396,-0.763806 -1.843991,-0.763806 -0.691596,0 -1.35496,0.274773 -1.843992,0.763806 -0.489032,0.489033 -0.763806,1.152396 -0.763806,1.843991 0,0.691596 0.274774,1.35496 0.763806,1.843992 0.489032,0.489031 1.152396,0.763806 1.843992,0.763806 z"
         id="path532" />
      <path
         d="m 52.496506,70.388484 c 0.820637,0 1.607773,-0.326042 2.18805,-0.90632 0.580279,-0.580277 0.906322,-1.367413 0.906322,-2.18805 0,-0.820637 -0.326043,-1.607773 -0.906322,-2.188052 -0.580277,-0.580278 -1.367413,-0.90632 -2.18805,-0.90632 -0.820637,0 -1.607773,0.326042 -2.18805,0.90632 -0.58028,0.580279 -0.906321,1.367415 -0.906321,2.188052 0,0.820637 0.326041,1.607773 0.906321,2.18805 0.580277,0.580278 1.367413,0.90632 2.18805,0.90632 z"
         id="path534" />
      <path
         d="m 36.695003,60.582404 c 1.087946,0 2.131479,-0.432245 2.900774,-1.201539 0.769293,-0.769295 1.201538,-1.812827 1.201538,-2.900773 0,-1.087946 -0.432245,-2.131479 -1.201538,-2.900774 -0.769295,-0.769293 -1.812828,-1.20154 -2.900774,-1.20154 -1.087946,0 -2.13148,0.432247 -2.900773,1.20154 -0.769295,0.769295 -1.201541,1.812828 -1.201541,2.900774 0,1.087946 0.432246,2.131478 1.201541,2.900773 0.769293,0.769294 1.812827,1.201539 2.900773,1.201539 z"
         id="path536" />
      <path
         d="m 52.836248,58.773898 c 0.567136,0 1.111121,-0.225326 1.512148,-0.626353 0.401027,-0.401027 0.626353,-0.945012 0.626353,-1.512148 0,-0.567137 -0.225326,-1.111123 -0.626353,-1.512148 -0.401027,-0.401027 -0.945012,-0.626353 -1.512148,-0.626353 -0.567137,0 -1.111123,0.225326 -1.51215,0.626353 -0.401026,0.401025 -0.626352,0.945011 -0.626352,1.512148 0,0.567136 0.225326,1.111121 0.626352,1.512148 0.401027,0.401027 0.945013,0.626353 1.51215,0.626353 z"
         id="path538" />
      <path
         d="m 81.470629,55.439825 c 1.05877,0 2.07432,-0.420655 2.822984,-1.169319 0.748664,-0.748664 1.169317,-1.764212 1.169317,-2.822984 0,-1.058771 -0.420653,-2.07432 -1.169317,-2.822984 -0.748664,-0.748664 -1.764214,-1.169319 -2.822984,-1.169319 -1.058772,0 -2.074321,0.420655 -2.822986,1.169319 -0.748664,0.748664 -1.169317,1.764213 -1.169317,2.822984 0,1.058772 0.420653,2.07432 1.169317,2.822984 0.748665,0.748664 1.764214,1.169319 2.822986,1.169319 z"
         id="path540" />
      <path
         d="m 111.80118,57.750714 c 0.91373,0 1.79016,-0.363028 2.43626,-1.009132 0.6461,-0.646102 1.00913,-1.522529 1.00913,-2.436258 0,-0.913727 -0.36303,-1.790154 -1.00913,-2.436258 -0.6461,-0.646103 -1.52253,-1.00913 -2.43626,-1.00913 -0.91373,0 -1.79015,0.363027 -2.43626,1.00913 -0.6461,0.646104 -1.00913,1.522531 -1.00913,2.436258 0,0.913729 0.36303,1.790156 1.00913,2.436258 0.64611,0.646104 1.52253,1.009132 2.43626,1.009132 z"
         id="path542" />
      <path
         d="m 118.10794,36.254401 c 0.59803,0 1.17164,-0.237598 1.5945,-0.660463 0.42287,-0.422868 0.66047,-0.996479 0.66047,-1.594502 0,-0.598026 -0.2376,-1.171636 -0.66047,-1.594502 -0.42286,-0.422867 -0.99647,-0.660465 -1.5945,-0.660465 -0.59802,0 -1.17163,0.237598 -1.5945,0.660465 -0.42286,0.422866 -0.66046,0.996476 -0.66046,1.594502 0,0.598023 0.2376,1.171634 0.66046,1.594502 0.42287,0.422865 0.99648,0.660463 1.5945,0.660463 z"
         id="path544" />
      <path
         d="m 125.4389,49.236071 c 0.99928,0 1.95777,-0.397018 2.66436,-1.103615 0.7066,-0.706598 1.10362,-1.665083 1.10362,-2.664363 0,-0.99928 -0.39702,-1.957767 -1.10362,-2.664363 -0.70659,-0.706598 -1.66508,-1.103615 -2.66436,-1.103615 -0.99928,0 -1.95777,0.397017 -2.66436,1.103615 -0.7066,0.706596 -1.10362,1.665083 -1.10362,2.664363 0,0.99928 0.39702,1.957765 1.10362,2.664363 0.70659,0.706597 1.66508,1.103615 2.66436,1.103615 z"
         id="path546" />
      <path
         d="m 87.795872,47.037939 c 1.026795,0 2.011674,-0.407951 2.737727,-1.134004 0.726055,-0.726054 1.134005,-1.710934 1.134005,-2.737729 0,-1.026795 -0.40795,-2.011673 -1.134005,-2.737727 -0.726053,-0.726055 -1.710932,-1.134004 -2.737727,-1.134004 -1.026795,0 -2.011673,0.407949 -2.737728,1.134004 -0.726053,0.726054 -1.134003,1.710932 -1.134003,2.737727 0,1.026795 0.40795,2.011675 1.134003,2.737729 0.726055,0.726053 1.710933,1.134004 2.737728,1.134004 z"
         id="path548" />
      <path
         d="m 39.293716,84.249052 c 0.833219,0 1.632422,-0.33104 2.221596,-0.920214 0.589174,-0.589174 0.920216,-1.38838 0.920216,-2.221597 0,-0.833219 -0.331042,-1.632423 -0.920216,-2.221597 -0.589174,-0.589174 -1.388377,-0.920216 -2.221596,-0.920216 -0.833218,0 -1.632423,0.331042 -2.221597,0.920216 -0.589174,0.589174 -0.920216,1.388378 -0.920216,2.221597 0,0.833217 0.331042,1.632423 0.920216,2.221597 0.589174,0.589174 1.388379,0.920214 2.221597,0.920214 z"
         id="path550" />
      <path
         d="m 142.77581,50.85997 c 1.26898,0 2.48615,-0.504171 3.38346,-1.401475 0.8973,-0.897306 1.40147,-2.114481 1.40147,-3.383463 0,-1.268979 -0.50417,-2.486157 -1.40147,-3.383461 -0.89731,-0.897306 -2.11448,-1.401477 -3.38346,-1.401477 -1.26898,0 -2.48616,0.504171 -3.38347,1.401477 -0.8973,0.897304 -1.40147,2.114482 -1.40147,3.383461 0,1.268982 0.50417,2.486157 1.40147,3.383463 0.89731,0.897304 2.11449,1.401475 3.38347,1.401475 z"
         id="path552" />
      <path
         d="m 96.605026,47.61905 c 1.16478,0 2.282007,-0.462773 3.105631,-1.286395 0.823623,-0.823622 1.286393,-1.940851 1.286393,-3.105629 0,-1.16478 -0.46277,-2.282008 -1.286393,-3.105632 -0.823624,-0.823622 -1.940851,-1.286392 -3.105631,-1.286392 -1.164778,0 -2.282006,0.46277 -3.10563,1.286392 -0.823622,0.823624 -1.286394,1.940852 -1.286394,3.105632 0,1.164778 0.462772,2.282007 1.286394,3.105629 0.823624,0.823622 1.940852,1.286395 3.10563,1.286395 z"
         id="path554" />
      <path
         d="m 45.575658,51.159239 c 1.079892,0 2.115699,-0.429046 2.879299,-1.192645 0.763599,-0.7636 1.192645,-1.799407 1.192645,-2.879299 0,-1.079891 -0.429046,-2.115699 -1.192645,-2.879298 -0.7636,-0.7636 -1.799407,-1.192646 -2.879299,-1.192646 -1.079891,0 -2.115699,0.429046 -2.879298,1.192646 -0.7636,0.763599 -1.192644,1.799407 -1.192644,2.879298 0,1.079892 0.429044,2.115699 1.192644,2.879299 0.763599,0.763599 1.799407,1.192645 2.879298,1.192645 z"
         id="path556" />
      <path
         d="m 68.237925,40.645987 c 1.248474,0 2.44598,-0.496023 3.328784,-1.378827 0.882805,-0.882805 1.378828,-2.080313 1.378828,-3.328786 0,-1.248474 -0.496023,-2.44598 -1.378828,-3.328785 -0.882804,-0.882804 -2.08031,-1.378827 -3.328784,-1.378827 -1.248473,0 -2.445982,0.496023 -3.328784,1.378827 -0.882805,0.882805 -1.37883,2.080311 -1.37883,3.328785 0,1.248473 0.496025,2.445981 1.37883,3.328786 0.882802,0.882804 2.080311,1.378827 3.328784,1.378827 z"
         id="path558" />
      <path
         d="m 156.56282,46.985577 c 0.77115,0 1.51083,-0.306383 2.05612,-0.851673 0.54529,-0.545289 0.85167,-1.284963 0.85167,-2.056119 0,-0.771156 -0.30638,-1.510831 -0.85167,-2.056121 -0.54529,-0.545289 -1.28497,-0.851674 -2.05612,-0.851674 -0.77116,0 -1.51083,0.306385 -2.05612,0.851674 -0.54529,0.54529 -0.85168,1.284965 -0.85168,2.056121 0,0.771156 0.30639,1.51083 0.85168,2.056119 0.54529,0.54529 1.28496,0.851673 2.05612,0.851673 z"
         id="path560" />
      <path
         d="m 55.273479,35.110466 c 0.980997,0 1.92195,-0.389755 2.615621,-1.083426 0.693671,-0.693671 1.083426,-1.634624 1.083426,-2.615623 0,-0.980998 -0.389755,-1.921951 -1.083426,-2.615622 -0.693671,-0.693671 -1.634624,-1.083426 -2.615621,-1.083426 -0.981,0 -1.921953,0.389755 -2.615624,1.083426 -0.693671,0.693671 -1.083426,1.634624 -1.083426,2.615622 0,0.980999 0.389755,1.921952 1.083426,2.615623 0.693671,0.693671 1.634624,1.083426 2.615624,1.083426 z"
         id="path562" />
      <path
         d="m 71.954492,51.678381 c 0.834928,0 1.635771,-0.331722 2.226154,-0.922105 0.590384,-0.590384 0.922104,-1.391227 0.922104,-2.226155 0,-0.834929 -0.33172,-1.635771 -0.922104,-2.226155 -0.590383,-0.590384 -1.391226,-0.922105 -2.226154,-0.922105 -0.834929,0 -1.635772,0.331721 -2.226155,0.922105 -0.590384,0.590384 -0.922105,1.391226 -0.922105,2.226155 0,0.834928 0.331721,1.635771 0.922105,2.226155 0.590383,0.590383 1.391226,0.922105 2.226155,0.922105 z"
         id="path564" />
      <path
         d="m 79.495075,44.845861 c 0.848252,0 1.661876,-0.337014 2.261681,-0.936819 0.599806,-0.599805 0.936821,-1.41343 0.936821,-2.261681 0,-0.848253 -0.337015,-1.661877 -0.936821,-2.261681 -0.599805,-0.599805 -1.413429,-0.936819 -2.261681,-0.936819 -0.848251,0 -1.661875,0.337014 -2.26168,0.936819 -0.599806,0.599804 -0.93682,1.413428 -0.93682,2.261681 0,0.848251 0.337014,1.661876 0.93682,2.261681 0.599805,0.599805 1.413429,0.936819 2.26168,0.936819 z"
         id="path566" />
      <path
         d="m 30.098228,52.970656 c 0.853988,0 1.673117,-0.339293 2.276978,-0.943154 0.603861,-0.603861 0.943154,-1.42299 0.943154,-2.276978 0,-0.85399 -0.339293,-1.673117 -0.943154,-2.276978 -0.603861,-0.603861 -1.42299,-0.943154 -2.276978,-0.943154 -0.85399,0 -1.673117,0.339293 -2.276978,0.943154 -0.603861,0.603861 -0.943156,1.422988 -0.943156,2.276978 0,0.853988 0.339295,1.673117 0.943156,2.276978 0.603861,0.603861 1.422988,0.943154 2.276978,0.943154 z"
         id="path568" />
      <path
         d="m 38.965382,40.450297 c 0.783466,0 1.534947,-0.311274 2.088939,-0.865268 0.553994,-0.553992 0.865268,-1.305473 0.865268,-2.088939 0,-0.783464 -0.311274,-1.534944 -0.865268,-2.088939 -0.553992,-0.553992 -1.305473,-0.865266 -2.088939,-0.865266 -0.783463,0 -1.534944,0.311274 -2.088938,0.865266 -0.553993,0.553995 -0.865267,1.305475 -0.865267,2.088939 0,0.783466 0.311274,1.534947 0.865267,2.088939 0.553994,0.553994 1.305475,0.865268 2.088938,0.865268 z"
         id="path570" />
      <path
         d="m 107.12043,49.620713 c 0.65666,0 1.28651,-0.260892 1.75083,-0.725216 0.46433,-0.464325 0.72522,-1.094172 0.72522,-1.750827 0,-0.656655 -0.26089,-1.286503 -0.72522,-1.750827 -0.46432,-0.464325 -1.09417,-0.725217 -1.75083,-0.725217 -0.65665,0 -1.2865,0.260892 -1.75082,0.725217 -0.46433,0.464324 -0.72522,1.094172 -0.72522,1.750827 0,0.656655 0.26089,1.286502 0.72522,1.750827 0.46432,0.464324 1.09417,0.725216 1.75082,0.725216 z"
         id="path572" />
      <path
         d="m 27.826249,69.27165 c 1.085289,0 2.126271,-0.431191 2.893685,-1.198604 0.767413,-0.767414 1.198602,-1.808396 1.198602,-2.893685 0,-1.085286 -0.431189,-2.126269 -1.198602,-2.893682 -0.767414,-0.767416 -1.808396,-1.198605 -2.893685,-1.198605 -1.085286,0 -2.126271,0.431189 -2.893684,1.198605 -0.767414,0.767413 -1.198603,1.808396 -1.198603,2.893682 0,1.085289 0.431189,2.126271 1.198603,2.893685 0.767413,0.767413 1.808398,1.198604 2.893684,1.198604 z"
         id="path574" />
      <path
         d="m 18.686639,62.371886 c 0.81588,0 1.598452,-0.324152 2.175365,-0.901065 0.576914,-0.576914 0.901066,-1.359486 0.901066,-2.175366 0,-0.815878 -0.324152,-1.59845 -0.901066,-2.175364 -0.576913,-0.576914 -1.359485,-0.901067 -2.175365,-0.901067 -0.815879,0 -1.598451,0.324153 -2.175364,0.901067 -0.576914,0.576914 -0.901067,1.359486 -0.901067,2.175364 0,0.81588 0.324153,1.598452 0.901067,2.175366 0.576913,0.576913 1.359485,0.901065 2.175364,0.901065 z"
         id="path576" />
      <path
         d="m 115.56484,48.901955 c 0.82067,0 1.60783,-0.326056 2.18814,-0.906356 0.5803,-0.5803 0.90635,-1.367466 0.90635,-2.188135 0,-0.820669 -0.32605,-1.607838 -0.90635,-2.188138 -0.58031,-0.5803 -1.36747,-0.906356 -2.18814,-0.906356 -0.82067,0 -1.60784,0.326056 -2.18814,0.906356 -0.5803,0.5803 -0.90635,1.367469 -0.90635,2.188138 0,0.820669 0.32605,1.607835 0.90635,2.188135 0.5803,0.5803 1.36747,0.906356 2.18814,0.906356 z"
         id="path578" />
      <path
         d="m 45.209877,64.970545 c 1.265203,0 2.478756,-0.502671 3.373389,-1.397304 0.894634,-0.894633 1.397303,-2.108186 1.397303,-3.373387 0,-1.265204 -0.502669,-2.478756 -1.397303,-3.373389 -0.894633,-0.894634 -2.108186,-1.397303 -3.373389,-1.397303 -1.265203,0 -2.478756,0.502669 -3.373389,1.397303 -0.894633,0.894633 -1.397302,2.108185 -1.397302,3.373389 0,1.265201 0.502669,2.478754 1.397302,3.373387 0.894633,0.894633 2.108186,1.397304 3.373389,1.397304 z"
         id="path580" />
      <path
         d="m 150.30593,43.280344 c 1.26835,0 2.48491,-0.503919 3.38177,-1.400777 0.89686,-0.896857 1.40078,-2.113427 1.40078,-3.381774 0,-1.268348 -0.50392,-2.484918 -1.40078,-3.381773 -0.89686,-0.896857 -2.11342,-1.400778 -3.38177,-1.400778 -1.26835,0 -2.48492,0.503921 -3.38178,1.400778 -0.89685,0.896855 -1.40077,2.113425 -1.40077,3.381773 0,1.268347 0.50392,2.484917 1.40077,3.381774 0.89686,0.896858 2.11343,1.400777 3.38178,1.400777 z"
         id="path582" />
      <path
         d="m 30.363095,88.345153 c 0.736147,0 1.442241,-0.292474 1.962776,-0.813006 0.520532,-0.520535 0.813006,-1.22663 0.813006,-1.962774 0,-0.736146 -0.292474,-1.442241 -0.813006,-1.962774 -0.520535,-0.520534 -1.226629,-0.813008 -1.962776,-0.813008 -0.736144,0 -1.442239,0.292474 -1.962773,0.813008 -0.520533,0.520533 -0.813007,1.226628 -0.813007,1.962774 0,0.736144 0.292474,1.442239 0.813007,1.962774 0.520534,0.520532 1.226629,0.813006 1.962773,0.813006 z"
         id="path584" />
      <path
         d="m 99.70307,34.198352 c 1.01213,0 1.98294,-0.402123 2.69863,-1.117807 0.71568,-0.715684 1.1178,-1.686496 1.1178,-2.698625 0,-1.012128 -0.40212,-1.982941 -1.1178,-2.698624 -0.71569,-0.715684 -1.6865,-1.117807 -2.69863,-1.117807 -1.012128,0 -1.98294,0.402123 -2.698624,1.117807 -0.715684,0.715683 -1.117807,1.686496 -1.117807,2.698624 0,1.012129 0.402123,1.982941 1.117807,2.698625 0.715684,0.715684 1.686496,1.117807 2.698624,1.117807 z"
         id="path586" />
      <path
         d="m 178.99735,39.453516 c 1.03391,0 2.02562,-0.410777 2.7567,-1.14186 0.73108,-0.731085 1.14186,-1.722785 1.14186,-2.756694 0,-1.033909 -0.41078,-2.025611 -1.14186,-2.756696 -0.73108,-0.731082 -1.72279,-1.14186 -2.7567,-1.14186 -1.0339,0 -2.02561,0.410778 -2.75669,1.14186 -0.73108,0.731085 -1.14186,1.722787 -1.14186,2.756696 0,1.033909 0.41078,2.025609 1.14186,2.756694 0.73108,0.731083 1.72279,1.14186 2.75669,1.14186 z"
         id="path588" />
      <path
         d="m 127.13353,37.467346 c 0.82324,0 1.61288,-0.32708 2.19501,-0.909203 0.58212,-0.582125 0.9092,-1.371765 0.9092,-2.195014 0,-0.823248 -0.32708,-1.612888 -0.9092,-2.195013 -0.58213,-0.582123 -1.37177,-0.909203 -2.19501,-0.909203 -0.82325,0 -1.61289,0.32708 -2.19502,0.909203 -0.58212,0.582125 -0.9092,1.371765 -0.9092,2.195013 0,0.823249 0.32708,1.612889 0.9092,2.195014 0.58213,0.582123 1.37177,0.909203 2.19502,0.909203 z"
         id="path590" />
      <path
         d="m 59.454089,78.421216 c 1.073322,0 2.102827,-0.426436 2.861782,-1.185388 0.758952,-0.758955 1.185388,-1.78846 1.185388,-2.861782 0,-1.073321 -0.426436,-2.102827 -1.185388,-2.861781 -0.758955,-0.758952 -1.78846,-1.185388 -2.861782,-1.185388 -1.073321,0 -2.102827,0.426436 -2.861781,1.185388 -0.758952,0.758954 -1.185388,1.78846 -1.185388,2.861781 0,1.073322 0.426436,2.102827 1.185388,2.861782 0.758954,0.758952 1.78846,1.185388 2.861781,1.185388 z"
         id="path592" />
      <path
         d="m 137.66193,38.80406 c 1.02761,0 2.01327,-0.408273 2.73989,-1.134902 0.72663,-0.726629 1.13491,-1.712287 1.13491,-2.739894 0,-1.027609 -0.40828,-2.013267 -1.13491,-2.739896 -0.72662,-0.726629 -1.71228,-1.134902 -2.73989,-1.134902 -1.02761,0 -2.01327,0.408273 -2.7399,1.134902 -0.72662,0.726629 -1.1349,1.712287 -1.1349,2.739896 0,1.027607 0.40828,2.013265 1.1349,2.739894 0.72663,0.726629 1.71229,1.134902 2.7399,1.134902 z"
         id="path594" />
      <path
         d="m 165.10033,42.580562 c 0.8516,0 1.66844,-0.338347 2.27061,-0.940519 0.60218,-0.602175 0.94052,-1.419013 0.94052,-2.270614 0,-0.851604 -0.33834,-1.668441 -0.94052,-2.270616 -0.60217,-0.602173 -1.41901,-0.94052 -2.27061,-0.94052 -0.8516,0 -1.66844,0.338347 -2.27061,0.94052 -0.60218,0.602175 -0.94052,1.419012 -0.94052,2.270616 0,0.851601 0.33834,1.668439 0.94052,2.270614 0.60217,0.602172 1.41901,0.940519 2.27061,0.940519 z"
         id="path596" />
      <path
         d="m 195.41382,49.540582 c 0.7676,0 1.50386,-0.304969 2.04663,-0.847742 0.54277,-0.542771 0.84774,-1.279031 0.84774,-2.046626 0,-0.767595 -0.30497,-1.503855 -0.84774,-2.046628 -0.54277,-0.542771 -1.27903,-0.84774 -2.04663,-0.84774 -0.76759,0 -1.50385,0.304969 -2.04662,0.84774 -0.54277,0.542773 -0.84775,1.279033 -0.84775,2.046628 0,0.767595 0.30498,1.503855 0.84775,2.046626 0.54277,0.542773 1.27903,0.847742 2.04662,0.847742 z"
         id="path598" />
      <path
         d="m 87.098114,28.271908 c 0.661579,0 1.296151,-0.262848 1.763958,-0.730655 0.467808,-0.467808 0.730657,-1.10238 0.730657,-1.76396 0,-0.661581 -0.262849,-1.296153 -0.730657,-1.76396 -0.467807,-0.467808 -1.102379,-0.730655 -1.763958,-0.730655 -0.66158,0 -1.296152,0.262847 -1.763959,0.730655 -0.467808,0.467807 -0.730655,1.102379 -0.730655,1.76396 0,0.66158 0.262847,1.296152 0.730655,1.76396 0.467807,0.467807 1.102379,0.730655 1.763959,0.730655 z"
         id="path600" />
      <path
         d="m 109.78131,21.42351 c 0.96854,0 1.89755,-0.384807 2.58241,-1.06967 0.68487,-0.684863 1.06967,-1.613868 1.06967,-2.582411 0,-0.968542 -0.3848,-1.897547 -1.06967,-2.58241 -0.68486,-0.684863 -1.61387,-1.06967 -2.58241,-1.06967 -0.96854,0 -1.89755,0.384807 -2.58241,1.06967 -0.68486,0.684863 -1.06967,1.613868 -1.06967,2.58241 0,0.968543 0.38481,1.897548 1.06967,2.582411 0.68486,0.684863 1.61387,1.06967 2.58241,1.06967 z"
         id="path602" />
      <path
         d="m 194.76837,41.0017 c 1.27605,0 2.50001,-0.50698 3.40231,-1.409281 0.9023,-0.902302 1.40928,-2.126256 1.40928,-3.402304 0,-1.276045 -0.50698,-2.500002 -1.40928,-3.402303 -0.9023,-0.902302 -2.12626,-1.409279 -3.40231,-1.409279 -1.27604,0 -2.5,0.506977 -3.4023,1.409279 -0.9023,0.902301 -1.40928,2.126258 -1.40928,3.402303 0,1.276048 0.50698,2.500002 1.40928,3.402304 0.9023,0.902301 2.12626,1.409281 3.4023,1.409281 z"
         id="path604" />
      <path
         d="m 104.27026,42.967479 c 1.20589,0 2.36255,-0.479104 3.21525,-1.331796 0.85269,-0.852691 1.33179,-2.009352 1.33179,-3.215241 0,-1.20589 -0.4791,-2.362551 -1.33179,-3.215243 -0.8527,-0.852691 -2.00936,-1.331796 -3.21525,-1.331796 -1.20588,0 -2.36254,0.479105 -3.21524,1.331796 -0.85269,0.852692 -1.331794,2.009353 -1.331794,3.215243 0,1.205889 0.479104,2.36255 1.331794,3.215241 0.8527,0.852692 2.00936,1.331796 3.21524,1.331796 z"
         id="path606" />
      <path
         d="m 121.0928,25.927044 c 1.20296,0 2.35681,-0.477942 3.20743,-1.328563 0.85063,-0.850623 1.32857,-2.004475 1.32857,-3.207437 0,-1.20296 -0.47794,-2.356814 -1.32857,-3.207434 -0.85062,-0.850623 -2.00447,-1.328563 -3.20743,-1.328563 -1.20296,0 -2.35681,0.47794 -3.20744,1.328563 -0.85062,0.85062 -1.32856,2.004474 -1.32856,3.207434 0,1.202962 0.47794,2.356814 1.32856,3.207437 0.85063,0.850621 2.00448,1.328563 3.20744,1.328563 z"
         id="path608" />
      <path
         d="m 160.41615,31.452682 c 1.24619,0 2.44151,-0.495118 3.32271,-1.37631 0.88119,-0.881193 1.37631,-2.076513 1.37631,-3.32271 0,-1.246194 -0.49512,-2.441514 -1.37631,-3.322708 -0.8812,-0.881191 -2.07652,-1.37631 -3.32271,-1.37631 -1.2462,0 -2.44152,0.495119 -3.32271,1.37631 -0.88119,0.881194 -1.37631,2.076514 -1.37631,3.322708 0,1.246197 0.49512,2.441517 1.37631,3.32271 0.88119,0.881192 2.07651,1.37631 3.32271,1.37631 z"
         id="path610" />
      <path
         d="m 209.06476,60.993933 c 1.17986,0 2.31156,-0.468764 3.14585,-1.303052 0.83429,-0.834289 1.30305,-1.965986 1.30305,-3.145847 0,-1.179862 -0.46876,-2.31156 -1.30305,-3.145848 -0.83429,-0.834287 -1.96599,-1.303052 -3.14585,-1.303052 -1.17986,0 -2.31156,0.468765 -3.14585,1.303052 -0.83429,0.834288 -1.30305,1.965986 -1.30305,3.145848 0,1.179861 0.46876,2.311558 1.30305,3.145847 0.83429,0.834288 1.96599,1.303052 3.14585,1.303052 z"
         id="path612" />
      <path
         d="m 108.75382,7.1334739 c 0.67363,0 1.31976,-0.2676366 1.79608,-0.7439622 0.47633,-0.4763275 0.74397,-1.122454 0.74397,-1.7960828 0,-0.6736268 -0.26764,-1.3197552 -0.74397,-1.7960808 -0.47632,-0.4763275 -1.12245,-0.7439622 -1.79608,-0.7439622 -0.67362,0 -1.31975,0.2676347 -1.79608,0.7439622 -0.47633,0.4763256 -0.74396,1.122454 -0.74396,1.7960808 0,0.6736288 0.26763,1.3197553 0.74396,1.7960828 0.47633,0.4763256 1.12246,0.7439622 1.79608,0.7439622 z"
         id="path614" />
      <path
         d="m 149.31789,34.097006 c 1.13118,0 2.21618,-0.449423 3.01605,-1.249289 0.79987,-0.799864 1.24929,-1.884868 1.24929,-3.016049 0,-1.13118 -0.44942,-2.216183 -1.24929,-3.016048 -0.79987,-0.799866 -1.88487,-1.249288 -3.01605,-1.249288 -1.13118,0 -2.21618,0.449422 -3.01605,1.249288 -0.79986,0.799865 -1.24929,1.884868 -1.24929,3.016048 0,1.131181 0.44943,2.216185 1.24929,3.016049 0.79987,0.799866 1.88487,1.249289 3.01605,1.249289 z"
         id="path616" />
      <path
         d="m 143.61078,25.904168 c 0.91309,0 1.7889,-0.362773 2.43455,-1.008421 0.64564,-0.645647 1.00842,-1.521457 1.00842,-2.434541 0,-0.913083 -0.36278,-1.788893 -1.00842,-2.434541 -0.64565,-0.645647 -1.52146,-1.008418 -2.43455,-1.008418 -0.91308,0 -1.78889,0.362771 -2.43454,1.008418 -0.64564,0.645648 -1.00841,1.521458 -1.00841,2.434541 0,0.913084 0.36277,1.788894 1.00841,2.434541 0.64565,0.645648 1.52146,1.008421 2.43454,1.008421 z"
         id="path618" />
      <path
         d="m 126.30919,18.40751 c 1.17159,0 2.29536,-0.465477 3.1238,-1.293919 0.82844,-0.828439 1.29392,-1.952203 1.29392,-3.123795 0,-1.171593 -0.46548,-2.295357 -1.29392,-3.123798 -0.82844,-0.82844 -1.95221,-1.293919 -3.1238,-1.293919 -1.17159,0 -2.29535,0.465479 -3.12379,1.293919 -0.82845,0.828441 -1.29392,1.952205 -1.29392,3.123798 0,1.171592 0.46547,2.295356 1.29392,3.123795 0.82844,0.828442 1.9522,1.293919 3.12379,1.293919 z"
         id="path620" />
      <path
         d="m 77.578161,36.423208 c 1.313323,0 2.573033,-0.521788 3.501691,-1.450448 0.928661,-0.928659 1.450449,-2.188369 1.450449,-3.501692 0,-1.313321 -0.521788,-2.573031 -1.450449,-3.501691 -0.928658,-0.928659 -2.188368,-1.450447 -3.501691,-1.450447 -1.313323,0 -2.573033,0.521788 -3.501691,1.450447 -0.928661,0.92866 -1.450449,2.18837 -1.450449,3.501691 0,1.313323 0.521788,2.573033 1.450449,3.501692 0.928658,0.92866 2.188368,1.450448 3.501691,1.450448 z"
         id="path622" />
      <path
         d="m 47.024975,29.131003 c 0.715167,0 1.401139,-0.284139 1.906839,-0.789839 0.5057,-0.5057 0.789839,-1.191673 0.789839,-1.90684 0,-0.715167 -0.284139,-1.401139 -0.789839,-1.906839 -0.5057,-0.5057 -1.191672,-0.789839 -1.906839,-0.789839 -0.715167,0 -1.40114,0.284139 -1.90684,0.789839 -0.5057,0.5057 -0.789839,1.191672 -0.789839,1.906839 0,0.715167 0.284139,1.40114 0.789839,1.90684 0.5057,0.5057 1.191673,0.789839 1.90684,0.789839 z"
         id="path624" />
      <path
         d="m 59.846097,27.322471 c 0.927176,0 1.816503,-0.368373 2.472117,-1.023987 0.655614,-0.655612 1.023984,-1.544939 1.023984,-2.472117 0,-0.927176 -0.36837,-1.816504 -1.023984,-2.472117 -0.655614,-0.655614 -1.544941,-1.023987 -2.472117,-1.023987 -0.927179,0 -1.816506,0.368373 -2.47212,1.023987 -0.655612,0.655613 -1.023984,1.544941 -1.023984,2.472117 0,0.927178 0.368372,1.816505 1.023984,2.472117 0.655614,0.655614 1.544941,1.023987 2.47212,1.023987 z"
         id="path626" />
      <path
         d="m 177.31219,48.502906 c 1.14282,0 2.23898,-0.454047 3.04708,-1.26214 0.80809,-0.808095 1.26214,-1.90426 1.26214,-3.047078 0,-1.142818 -0.45405,-2.238981 -1.26214,-3.047075 -0.8081,-0.808095 -1.90426,-1.262141 -3.04708,-1.262141 -1.14281,0 -2.23898,0.454046 -3.04707,1.262141 -0.8081,0.808094 -1.26214,1.904257 -1.26214,3.047075 0,1.142818 0.45404,2.238983 1.26214,3.047078 0.80809,0.808093 1.90426,1.26214 3.04707,1.26214 z"
         id="path628" />
      <path
         d="m 130.0345,25.78819 c 0.6346,0 1.24329,-0.252129 1.69202,-0.70086 0.44873,-0.448731 0.70086,-1.057424 0.70086,-1.692025 0,-0.634601 -0.25213,-1.243294 -0.70086,-1.692025 -0.44873,-0.448729 -1.05742,-0.700859 -1.69202,-0.700859 -0.6346,0 -1.2433,0.25213 -1.69203,0.700859 -0.44873,0.448731 -0.70086,1.057424 -0.70086,1.692025 0,0.634601 0.25213,1.243294 0.70086,1.692025 0.44873,0.448731 1.05743,0.70086 1.69203,0.70086 z"
         id="path630" />
      <path
         d="m 79.219923,26.26982 c 1.203634,0 2.358131,-0.478209 3.209229,-1.329307 0.851098,-0.851096 1.329307,-2.005595 1.329307,-3.209229 0,-1.203634 -0.478209,-2.358131 -1.329307,-3.209229 -0.851098,-0.851098 -2.005595,-1.329307 -3.209229,-1.329307 -1.203634,0 -2.358131,0.478209 -3.209229,1.329307 -0.851098,0.851098 -1.329307,2.005595 -1.329307,3.209229 0,1.203634 0.478209,2.358133 1.329307,3.209229 0.851098,0.851098 2.005595,1.329307 3.209229,1.329307 z"
         id="path632" />
      <path
         d="m 12.622102,81.906319 c 1.046533,0 2.050342,-0.415792 2.790352,-1.155801 0.740012,-0.740012 1.155803,-1.743821 1.155803,-2.790354 0,-1.046533 -0.415791,-2.050344 -1.155803,-2.790354 -0.74001,-0.74001 -1.743819,-1.155801 -2.790352,-1.155801 -1.046533,0 -2.050344,0.415791 -2.7903537,1.155801 -0.7400098,0.74001 -1.1558016,1.743821 -1.1558016,2.790354 0,1.046533 0.4157918,2.050342 1.1558016,2.790354 0.7400097,0.740009 1.7438207,1.155801 2.7903537,1.155801 z"
         id="path634" />
      <path
         d="m 23.133756,83.267179 c 1.215826,0 2.382018,-0.483053 3.241736,-1.342771 0.859719,-0.859718 1.342772,-2.02591 1.342772,-3.241736 0,-1.215826 -0.483053,-2.382018 -1.342772,-3.241737 -0.859718,-0.859718 -2.02591,-1.342771 -3.241736,-1.342771 -1.215826,0 -2.382018,0.483053 -3.241736,1.342771 -0.859719,0.859719 -1.342772,2.025911 -1.342772,3.241737 0,1.215826 0.483053,2.382018 1.342772,3.241736 0.859718,0.859718 2.02591,1.342771 3.241736,1.342771 z"
         id="path636" />
      <path
         d="m 60.182753,42.848738 c 1.17014,0 2.292515,-0.464902 3.11993,-1.292317 0.827416,-0.827416 1.292318,-1.949788 1.292318,-3.119931 0,-1.17014 -0.464902,-2.292515 -1.292318,-3.11993 -0.827415,-0.827414 -1.94979,-1.292317 -3.11993,-1.292317 -1.170142,0 -2.292515,0.464903 -3.11993,1.292317 -0.827416,0.827415 -1.292318,1.94979 -1.292318,3.11993 0,1.170143 0.464902,2.292515 1.292318,3.119931 0.827415,0.827415 1.949788,1.292317 3.11993,1.292317 z"
         id="path638" />
      <path
         d="m 13.918686,72.083725 c 0.906922,0 1.776819,-0.360323 2.418109,-1.001613 0.64129,-0.64129 1.001611,-1.511187 1.001611,-2.418107 0,-0.90692 -0.360321,-1.776819 -1.001611,-2.418109 -0.64129,-0.641288 -1.511187,-1.001611 -2.418109,-1.001611 -0.90692,0 -1.776817,0.360323 -2.418107,1.001611 -0.64129,0.64129 -1.001613,1.511189 -1.001613,2.418109 0,0.90692 0.360323,1.776817 1.001613,2.418107 0.64129,0.64129 1.511187,1.001613 2.418107,1.001613 z"
         id="path640" />
      <path
         d="m 151.80987,22.440713 c 0.99246,0 1.9444,-0.394305 2.64617,-1.096078 0.70177,-0.701772 1.09608,-1.653714 1.09608,-2.646169 0,-0.992456 -0.39431,-1.944396 -1.09608,-2.646168 -0.70177,-0.701773 -1.65371,-1.09608 -2.64617,-1.09608 -0.99246,0 -1.9444,0.394307 -2.64617,1.09608 -0.70177,0.701772 -1.09608,1.653712 -1.09608,2.646168 0,0.992455 0.39431,1.944397 1.09608,2.646169 0.70177,0.701773 1.65371,1.096078 2.64617,1.096078 z"
         id="path642" />
      <path
         d="m 47.630206,38.154538 c 0.903093,0 1.769319,-0.358804 2.407902,-0.997387 0.638583,-0.638581 0.997385,-1.504807 0.997385,-2.4079 0,-0.903093 -0.358802,-1.769319 -0.997385,-2.4079 -0.638583,-0.638583 -1.504809,-0.997387 -2.407902,-0.997387 -0.90309,0 -1.769316,0.358804 -2.4079,0.997387 -0.638583,0.638581 -0.997385,1.504807 -0.997385,2.4079 0,0.903093 0.358802,1.769319 0.997385,2.4079 0.638584,0.638583 1.50481,0.997387 2.4079,0.997387 z"
         id="path644" />
      <path
         d="m 31.121315,79.173244 c 1.266664,0 2.48162,-0.503251 3.377288,-1.398918 0.895667,-0.895668 1.398918,-2.110624 1.398918,-3.377288 0,-1.266667 -0.503251,-2.481622 -1.398918,-3.377289 -0.895668,-0.895668 -2.110624,-1.398919 -3.377288,-1.398919 -1.266665,0 -2.481622,0.503251 -3.377289,1.398919 -0.895668,0.895667 -1.398919,2.110622 -1.398919,3.377289 0,1.266664 0.503251,2.48162 1.398919,3.377288 0.895667,0.895667 2.110624,1.398918 3.377289,1.398918 z"
         id="path646" />
      <path
         d="m 186.37976,46.671326 c 1.24101,0 2.43136,-0.493058 3.30889,-1.370583 0.87752,-0.877526 1.37058,-2.067874 1.37058,-3.308882 0,-1.241009 -0.49306,-2.431357 -1.37058,-3.308882 -0.87753,-0.877527 -2.06788,-1.370584 -3.30889,-1.370584 -1.241,0 -2.43135,0.493057 -3.30888,1.370584 -0.87752,0.877525 -1.37058,2.067873 -1.37058,3.308882 0,1.241008 0.49306,2.431356 1.37058,3.308882 0.87753,0.877525 2.06788,1.370583 3.30888,1.370583 z"
         id="path648" />
      <path
         d="m 203.25118,46.113932 c 0.85354,0 1.67223,-0.339116 2.27577,-0.942657 0.60354,-0.603543 0.94266,-1.422236 0.94266,-2.275774 0,-0.853538 -0.33912,-1.672233 -0.94266,-2.275774 -0.60354,-0.603543 -1.42223,-0.942657 -2.27577,-0.942657 -0.85354,0 -1.67223,0.339114 -2.27577,0.942657 -0.60355,0.603541 -0.94266,1.422236 -0.94266,2.275774 0,0.853538 0.33911,1.672231 0.94266,2.275774 0.60354,0.603541 1.42223,0.942657 2.27577,0.942657 z"
         id="path650" />
      <path
         d="m 91.984662,38.148081 c 0.950694,0 1.86258,-0.377714 2.534821,-1.049957 0.672243,-0.672243 1.049959,-1.584127 1.049959,-2.53482 0,-0.950696 -0.377716,-1.86258 -1.049959,-2.534823 -0.672241,-0.672243 -1.584127,-1.049957 -2.534821,-1.049957 -0.950693,0 -1.862579,0.377714 -2.534822,1.049957 -0.672241,0.672243 -1.049957,1.584127 -1.049957,2.534823 0,0.950693 0.377716,1.862577 1.049957,2.53482 0.672243,0.672243 1.584129,1.049957 2.534822,1.049957 z"
         id="path652" />
      <path
         d="m 170.67839,34.118298 c 0.79625,0 1.56,-0.316353 2.12303,-0.879386 0.56303,-0.563034 0.87939,-1.326778 0.87939,-2.123028 0,-0.796249 -0.31636,-1.559992 -0.87939,-2.123027 -0.56303,-0.563032 -1.32678,-0.879385 -2.12303,-0.879385 -0.79625,0 -1.55999,0.316353 -2.12302,0.879385 -0.56304,0.563035 -0.87939,1.326778 -0.87939,2.123027 0,0.79625 0.31635,1.559994 0.87939,2.123028 0.56303,0.563033 1.32677,0.879386 2.12302,0.879386 z"
         id="path654" />
      <path
         d="m 169.38813,26.594937 c 1.29866,0 2.5443,-0.515963 3.4626,-1.434256 0.91829,-0.918293 1.43425,-2.163939 1.43425,-3.462599 0,-1.298662 -0.51596,-2.544308 -1.43425,-3.462601 -0.9183,-0.918291 -2.16394,-1.434254 -3.4626,-1.434254 -1.29867,0 -2.54431,0.515963 -3.4626,1.434254 -0.91829,0.918293 -1.43426,2.163939 -1.43426,3.462601 0,1.29866 0.51597,2.544306 1.43426,3.462599 0.91829,0.918293 2.16393,1.434256 3.4626,1.434256 z"
         id="path656" />
      <path
         d="m 109.01399,34.940504 c 1.16103,0 2.27467,-0.461282 3.09564,-1.282258 0.82098,-0.820974 1.28226,-1.934611 1.28226,-3.095644 0,-1.161034 -0.46128,-2.274673 -1.28226,-3.095647 -0.82097,-0.820975 -1.93461,-1.282258 -3.09564,-1.282258 -1.16104,0 -2.27467,0.461283 -3.09565,1.282258 -0.82097,0.820974 -1.28225,1.934613 -1.28225,3.095647 0,1.161033 0.46128,2.27467 1.28225,3.095644 0.82098,0.820976 1.93461,1.282258 3.09565,1.282258 z"
         id="path658" />
      <path
         d="m 201.53076,56.103608 c 0.99605,0 1.95145,-0.395736 2.65577,-1.100053 0.70432,-0.704318 1.10005,-1.659711 1.10005,-2.655767 0,-0.996054 -0.39573,-1.951448 -1.10005,-2.655765 -0.70432,-0.704318 -1.65972,-1.100055 -2.65577,-1.100055 -0.99606,0 -1.95145,0.395737 -2.65577,1.100055 -0.70431,0.704317 -1.10005,1.659711 -1.10005,2.655765 0,0.996056 0.39574,1.951449 1.10005,2.655767 0.70432,0.704317 1.65971,1.100053 2.65577,1.100053 z"
         id="path660" />
      <path
         d="m 22.23365,90.015684 c 0.584164,0 1.14448,-0.232091 1.557547,-0.645157 0.413066,-0.413066 0.645157,-0.973383 0.645157,-1.557546 0,-0.584164 -0.232091,-1.144481 -0.645157,-1.557546 -0.413067,-0.413067 -0.973383,-0.645158 -1.557547,-0.645158 -0.584163,0 -1.14448,0.232091 -1.557548,0.645158 -0.413066,0.413065 -0.645155,0.973382 -0.645155,1.557546 0,0.584163 0.232089,1.14448 0.645155,1.557546 0.413068,0.413066 0.973385,0.645157 1.557548,0.645157 z"
         id="path662" />
      <path
         d="m 68.528521,28.933662 c 1.090677,0 2.136828,-0.433332 2.908054,-1.204556 0.771224,-0.771224 1.204554,-1.817376 1.204554,-2.908054 0,-1.090675 -0.43333,-2.136827 -1.204554,-2.908053 -0.771226,-0.771224 -1.817377,-1.204554 -2.908054,-1.204554 -1.090676,0 -2.136828,0.43333 -2.908054,1.204554 -0.771224,0.771226 -1.204554,1.817378 -1.204554,2.908053 0,1.090678 0.43333,2.13683 1.204554,2.908054 0.771226,0.771224 1.817378,1.204556 2.908054,1.204556 z"
         id="path664" />
      <path
         d="m 98.54873,22.227741 c 0.779042,0 1.52628,-0.309518 2.07715,-0.860383 0.55086,-0.550867 0.86038,-1.298106 0.86038,-2.07715 0,-0.779041 -0.30952,-1.52628 -0.86038,-2.077147 -0.55087,-0.550865 -1.298108,-0.860383 -2.07715,-0.860383 -0.779042,0 -1.526282,0.309518 -2.077148,0.860383 -0.550867,0.550867 -0.860382,1.298106 -0.860382,2.077147 0,0.779044 0.309515,1.526283 0.860382,2.07715 0.550866,0.550865 1.298106,0.860383 2.077148,0.860383 z"
         id="path666" />
      <path
         d="m 183.80326,31.273635 c 0.98023,0 1.92044,-0.389449 2.61356,-1.082573 0.69312,-0.693122 1.08257,-1.633333 1.08257,-2.613556 0,-0.980226 -0.38945,-1.920435 -1.08257,-2.613559 -0.69312,-0.693124 -1.63333,-1.082572 -2.61356,-1.082572 -0.98022,0 -1.92043,0.389448 -2.61355,1.082572 -0.69313,0.693124 -1.08258,1.633333 -1.08258,2.613559 0,0.980223 0.38945,1.920434 1.08258,2.613556 0.69312,0.693124 1.63333,1.082573 2.61355,1.082573 z"
         id="path668" />
      <path
         d="m 90.339448,16.295735 c 1.218942,0 2.388122,-0.484291 3.250044,-1.346212 0.861921,-0.861922 1.346211,-2.031103 1.346211,-3.250045 0,-1.21894 -0.48429,-2.3881207 -1.346211,-3.2500423 C 92.72757,7.5875142 91.55839,7.1032231 90.339448,7.1032231 c -1.21894,0 -2.388121,0.4842911 -3.250043,1.3462126 -0.861921,0.8619216 -1.346212,2.0311023 -1.346212,3.2500423 0,1.218942 0.484291,2.388123 1.346212,3.250045 0.861922,0.861921 2.031103,1.346212 3.250043,1.346212 z"
         id="path670" />
      <path
         d="m 162.44737,20.685522 c 1.12716,0 2.20829,-0.447822 3.00531,-1.244839 0.79702,-0.797018 1.24484,-1.878158 1.24484,-3.005311 0,-1.127152 -0.44782,-2.208291 -1.24484,-3.00531 -0.79702,-0.797017 -1.87815,-1.244839 -3.00531,-1.244839 -1.12715,0 -2.20829,0.447822 -3.00531,1.244839 -0.79701,0.797019 -1.24484,1.878158 -1.24484,3.00531 0,1.127153 0.44783,2.208293 1.24484,3.005311 0.79702,0.797017 1.87816,1.244839 3.00531,1.244839 z"
         id="path672" />
      <path
         d="m 69.622854,16.154302 c 0.902958,0 1.769055,-0.358751 2.407544,-0.997237 0.638488,-0.638489 0.997237,-1.504586 0.997237,-2.407545 0,-0.90296 -0.358749,-1.769057 -0.997237,-2.407546 -0.638489,-0.6384863 -1.504586,-0.9972369 -2.407544,-0.9972369 -0.902959,0 -1.769056,0.3587506 -2.407544,0.9972369 -0.638489,0.638489 -0.997238,1.504586 -0.997238,2.407546 0,0.902959 0.358749,1.769056 0.997238,2.407545 0.638488,0.638486 1.504585,0.997237 2.407544,0.997237 z"
         id="path674" />
      <path
         d="m 77.799442,13.522158 c 0.996179,0 1.951692,-0.395787 2.656098,-1.100193 0.704406,-0.704406 1.100193,-1.659919 1.100193,-2.656098 0,-0.9961809 -0.395787,-1.9516943 -1.100193,-2.6561 -0.704406,-0.7044058 -1.659919,-1.1001914 -2.656098,-1.1001914 -0.996181,0 -1.951695,0.3957856 -2.6561,1.1001914 -0.704406,0.7044057 -1.100192,1.6599191 -1.100192,2.6561 0,0.996179 0.395786,1.951692 1.100192,2.656098 0.704405,0.704406 1.659919,1.100193 2.6561,1.100193 z"
         id="path676" />
      <path
         d="m 135.69454,8.8137269 c 1.16871,0 2.28972,-0.4643359 3.11612,-1.2907406 0.82641,-0.8264065 1.29074,-1.9474087 1.29074,-3.1161238 0,-1.1687133 -0.46433,-2.2897154 -1.29074,-3.116122 C 137.98426,0.46433586 136.86325,0 135.69454,0 c -1.16871,0 -2.28972,0.46433586 -3.11612,1.2907405 -0.82641,0.8264066 -1.29074,1.9474087 -1.29074,3.116122 0,1.1687151 0.46433,2.2897173 1.29074,3.1161238 0.8264,0.8264047 1.94741,1.2907406 3.11612,1.2907406 z"
         id="path678" />
      <path
         d="m 117.98796,9.7487948 c 0.90963,0 1.78212,-0.3613969 2.42532,-1.0045988 0.6432,-0.6432 1.00459,-1.5156898 1.00459,-2.425313 0,-0.9096232 -0.36139,-1.782113 -1.00459,-2.4253149 -0.6432,-0.6432001 -1.51569,-1.0045969 -2.42532,-1.0045969 -0.90962,0 -1.78211,0.3613968 -2.42531,1.0045969 -0.6432,0.6432019 -1.0046,1.5156917 -1.0046,2.4253149 0,0.9096232 0.3614,1.782113 1.0046,2.425313 0.6432,0.6432019 1.51569,1.0045988 2.42531,1.0045988 z"
         id="path680" />
      <path
         d="m 144.49664,13.934189 c 0.69555,0 1.36272,-0.276348 1.85455,-0.76818 0.49183,-0.491833 0.76818,-1.158995 0.76818,-1.854554 0,-0.695556 -0.27635,-1.3627184 -0.76818,-1.8545508 -0.49183,-0.4918344 -1.159,-0.7681822 -1.85455,-0.7681822 -0.69556,0 -1.36272,0.2763478 -1.85456,0.7681822 -0.49183,0.4918324 -0.76818,1.1589948 -0.76818,1.8545508 0,0.695559 0.27635,1.362721 0.76818,1.854554 0.49184,0.491832 1.159,0.76818 1.85456,0.76818 z"
         id="path682" />
      <path
         d="m 135.73835,17.960394 c 1.28983,0 2.527,-0.512452 3.43905,-1.424496 0.91204,-0.912044 1.42449,-2.149217 1.42449,-3.439042 0,-1.289826 -0.51245,-2.526996 -1.42449,-3.4390408 -0.91205,-0.9120443 -2.14922,-1.4244963 -3.43905,-1.4244963 -1.28982,0 -2.52699,0.512452 -3.43904,1.4244963 -0.91204,0.9120448 -1.42449,2.1492148 -1.42449,3.4390408 0,1.289825 0.51245,2.526998 1.42449,3.439042 0.91205,0.912044 2.14922,1.424496 3.43904,1.424496 z"
         id="path684" />
      <path
         d="m 155.04092,13.240635 c 0.89133,0 1.74627,-0.354129 2.37654,-0.984395 0.63026,-0.630266 0.98439,-1.485208 0.98439,-2.3765383 0,-0.89133 -0.35413,-1.7462724 -0.98439,-2.3765381 -0.63027,-0.6302656 -1.48521,-0.9843955 -2.37654,-0.9843955 -0.89133,0 -1.74628,0.3541299 -2.37654,0.9843955 -0.63027,0.6302657 -0.98439,1.4852081 -0.98439,2.3765381 0,0.8913303 0.35412,1.7462723 0.98439,2.3765383 0.63026,0.630266 1.48521,0.984395 2.37654,0.984395 z"
         id="path686" />
      <path
         d="m 4.2219163,95.229019 c 1.1196658,0 2.1936231,-0.444849 2.9853457,-1.236571 0.7917225,-0.791723 1.2365707,-1.86568 1.2365707,-2.985346 0,-1.119665 -0.4448482,-2.193623 -1.2365707,-2.985345 -0.7917226,-0.791723 -1.8656799,-1.236571 -2.9853457,-1.236571 -1.1196657,0 -2.193623,0.444848 -2.9853456,1.236571 C 0.44484822,88.813479 0,89.887437 0,91.007102 c 0,1.119666 0.44484822,2.193623 1.2365707,2.985346 0.7917226,0.791722 1.8656799,1.236571 2.9853456,1.236571 z"
         id="path688" />
      <path
         d="m 100.01757,12.95145 c 0.60281,0 1.18101,-0.2395 1.60727,-0.665756 0.42626,-0.426254 0.66576,-1.004459 0.66576,-1.607273 0,-0.602817 -0.2395,-1.1810215 -0.66576,-1.6072756 -0.42626,-0.4262559 -1.00446,-0.6657561 -1.60727,-0.6657561 -0.602818,0 -1.181025,0.2395002 -1.607279,0.6657561 -0.426256,0.4262541 -0.665756,1.0044586 -0.665756,1.6072756 0,0.602814 0.2395,1.181019 0.665756,1.607273 0.426254,0.426256 1.004461,0.665756 1.607279,0.665756 z"
         id="path690" />
      <path
         d="m 178.10563,23.357115 c 0.72746,0 1.42522,-0.289021 1.93961,-0.803411 0.51439,-0.514391 0.80341,-1.21215 0.80341,-1.939606 0,-0.727458 -0.28902,-1.425218 -0.80341,-1.939608 -0.51439,-0.514391 -1.21215,-0.803411 -1.93961,-0.803411 -0.72745,0 -1.42521,0.28902 -1.9396,0.803411 -0.51439,0.51439 -0.80341,1.21215 -0.80341,1.939608 0,0.727456 0.28902,1.425215 0.80341,1.939606 0.51439,0.51439 1.21215,0.803411 1.9396,0.803411 z"
         id="path692" />
      <path
         d="m 126.83797,9.6352951 c 1.05212,0 2.06128,-0.4180085 2.80524,-1.1619669 0.74396,-0.7439584 1.16197,-1.7531229 1.16197,-2.8052397 0,-1.0521148 -0.41801,-2.0612793 -1.16197,-2.8052377 -0.74396,-0.7439584 -1.75312,-1.1619669 -2.80524,-1.1619669 -1.05212,0 -2.06128,0.4180085 -2.80524,1.1619669 -0.74395,0.7439584 -1.16196,1.7531229 -1.16196,2.8052377 0,1.0521168 0.41801,2.0612813 1.16196,2.8052397 0.74396,0.7439584 1.75312,1.1619669 2.80524,1.1619669 z"
         id="path694" />
      <path
         d="m 36.246417,69.874506 c 1.212091,0 2.374702,-0.481569 3.231779,-1.338646 0.857078,-0.857078 1.338647,-2.019688 1.338647,-3.23178 0,-1.212091 -0.481569,-2.374702 -1.338647,-3.231781 -0.857077,-0.857078 -2.019688,-1.338647 -3.231779,-1.338647 -1.212092,0 -2.374702,0.481569 -3.23178,1.338647 -0.857079,0.857079 -1.338648,2.01969 -1.338648,3.231781 0,1.212092 0.481569,2.374702 1.338648,3.23178 0.857078,0.857077 2.019688,1.338646 3.23178,1.338646 z"
         id="path696" />
    </g>
    <path
       d="m 174.3434,58.56081 -4.7173,-0.112715 -4.7182,0.108175 -4.7173,0.327804 -4.71469,0.543365 -4.7105,0.752169 -4.70502,0.951709 -4.69849,1.139712 -4.69124,1.3142 -4.68356,1.473483 -4.67568,1.616199 -4.66779,1.741297 -4.66005,1.84804 -4.65254,1.935995 -4.64536,2.005035 -4.63849,2.055312 -4.63199,2.087242 -9.245869,4.200443 -4.614615,2.080725 -4.609509,2.048026 -4.604773,2.002265 -4.600407,1.94491 -4.596424,1.877507 -4.592845,1.801622 -4.589693,1.718817 -4.586995,1.630629 -4.584766,1.538526 -4.583025,1.443898 -4.581775,1.34804 -4.581017,1.25211 -4.580737,1.15718 -4.580911,1.06416 -4.581503,0.97386 -4.582474,0.88692 -4.583771,0.8039 -5.0282507,0.79435 -0.2216477,1.52941 c -0.8419384,5.80952 -1.2652409,11.6751 -1.2652409,17.55174 0,4.57819 0.2569083,9.15041 0.7687765,13.69541 l 0.3201551,2.84274 6.6394807,-2.9473 4.631172,-2.08816 9.24543,-4.20025 4.614176,-2.07925 4.608042,-2.04187 4.601536,-1.98622 4.594678,-1.91203 4.587482,-1.81941 4.579981,-1.70872 4.57224,-1.58064 4.564352,-1.43619 4.55647,-1.27666 4.548786,-1.10361 4.541538,-0.91881 4.53502,-0.72429 4.529521,-0.52211 4.525344,-0.31448 4.522727,-0.10363 4.521831,0.10817 4.52273,0.31873 4.52534,0.52579 4.52952,0.72723 4.53502,0.92088 4.54154,1.10476 4.54879,1.27694 4.55647,1.43567 4.56435,1.57943 4.57224,1.70695 4.57998,1.81722 4.58748,1.90955 4.59468,1.98356 4.60154,2.03915 4.60804,2.07654 9.23419,4.19515 4.62542,2.08562 4.63052,2.05743 4.63525,2.01566 4.63963,1.96173 4.6436,1.89712 4.64719,1.82337 4.65033,1.74207 4.65304,1.65474 4.65526,1.56289 4.65701,1.46797 4.65825,1.37133 4.65901,1.27425 4.6593,1.17785 4.65912,1.08313 6.55202,1.39464 0.54446,-1.87067 c 3.08733,-10.60761 4.72544,-21.58909 4.86591,-32.64467 l 0.01,-1.54138 -0.01,-1.55469 -0.0323,-1.66351 c -0.39452,-14.99445 -3.53705,-29.778252 -9.27344,-43.627121 l -0.42329,-1.009118 -0.75573,-1.748285 -4.76289,-2.142145 -4.63061,-2.051961 -4.63849,-2.002377 -4.64535,-1.933514 -4.65255,-1.845853 -4.66005,-1.739531 -4.66779,-1.61499 -4.67568,-1.472958 -4.68356,-1.314475 -4.69124,-1.140869 -4.69849,-0.953775 -4.70501,-0.755106 -4.71051,-0.547053 z m -4.76639,1.983845 4.62001,0.108175 4.62002,0.323264 4.62001,0.53458 4.62002,0.739696 4.62001,0.936298 4.62002,1.122236 4.62001,1.295568 4.62002,1.454575 4.62001,1.597816 4.62002,1.724123 4.62001,1.832632 4.62002,1.922774 4.62001,1.994294 4.62002,2.04723 4.02374,1.80971 c 0.28606,0.657132 0.56637,1.317083 0.84087,1.979782 5.64064,13.617698 8.72694,28.148672 9.11421,42.865482 l 0.0319,1.63593 0.01,1.52805 -0.01,1.52805 c -0.13822,10.87948 -1.75183,21.67228 -4.78252,32.08527 l -4.6082,-0.98062 -4.62001,-1.07365 -4.62002,-1.16751 -4.62001,-1.26318 -4.62002,-1.35969 -4.62001,-1.45593 -4.62002,-1.55071 -4.62001,-1.64269 -4.62002,-1.73044 -4.62001,-1.8125 -4.62002,-1.88731 -4.62001,-1.95332 -4.62002,-2.00896 -4.62001,-2.05273 -4.62002,-2.08317 -9.24003,-4.1978 -4.62001,-2.08189 -4.62002,-2.04723 -4.62001,-1.9943 -4.62002,-1.92277 -4.62001,-1.83263 -4.62002,-1.72412 -4.62001,-1.59782 -4.62002,-1.45458 -4.62001,-1.29556 -4.62002,-1.12224 -4.62001,-0.9363 -4.62002,-0.73969 -4.62001,-0.53459 -4.62002,-0.32326 -4.620012,-0.10817 -4.620015,0.10817 -4.620015,0.32326 -4.620015,0.53459 -4.620015,0.73969 -4.620015,0.9363 -4.620015,1.12224 -4.620015,1.29556 -4.620013,1.45458 -4.620016,1.59782 -4.620014,1.72412 -4.620016,1.83263 -4.620015,1.92277 -4.620015,1.9943 -4.620015,2.04723 -4.620015,2.08189 -9.24003,4.1978 -4.620015,2.08317 -4.0248104,1.78663 c -0.5023563,-4.46054 -0.7556018,-8.95437 -0.7556018,-13.46071 0,-5.78559 0.4174365,-11.55057 1.2435588,-17.25096 l 3.5368534,-0.55896 4.620015,-0.81058 4.620015,-0.89455 4.620015,-0.98242 4.620015,-1.07365 4.620015,-1.16751 4.620015,-1.26319 4.620015,-1.35968 4.620016,-1.45594 4.620014,-1.550704 4.620016,-1.642682 4.620013,-1.730442 4.620015,-1.8125 4.620015,-1.887312 4.620015,-1.953319 4.620015,-2.008964 4.620015,-2.05273 4.620015,-2.083169 9.240027,-4.1978 4.62002,-2.081892 4.62001,-2.04723 4.62002,-1.994294 4.62001,-1.922774 4.62002,-1.832632 4.62001,-1.724123 4.62002,-1.597816 4.62001,-1.454575 4.62002,-1.295568 4.62001,-1.122236 4.62002,-0.936298 4.62001,-0.739696 4.62002,-0.53458 4.62001,-0.323264 z"
       fill="#ffffff"
       id="path700" />
    <path
       d="m 169.57701,60.044518 4.64333,0.108721 4.64291,0.324866 4.6421,0.537135 4.64094,0.743046 4.6395,0.940248 4.63786,1.126571 4.63608,1.300072 4.63422,1.459048 4.63234,1.60208 4.63523,1.729912 4.62777,1.835783 4.62606,1.925335 4.62442,1.996222 4.62287,2.048507 4.20143,1.893299 c 0.31342,0.716911 0.62,1.437176 0.9197,2.160704 5.74333,13.865633 8.84944,28.674183 9.16687,43.666203 v 0 l 0.0173,1.02338 0.01,1.5344 -0.01,1.53123 c -0.14077,11.07958 -1.80536,22.06963 -4.93269,32.66311 v 0 l -5.07117,-1.0778 -4.62934,-1.07591 -4.62938,-1.16997 -4.62931,-1.26583 -4.62913,-1.36246 -4.62883,-1.4588 -4.62842,-1.55362 -4.62789,-1.64555 -4.62724,-1.73322 -4.6265,-1.81509 -4.62564,-1.88965 -4.62469,-1.95532 -4.62365,-2.01056 -4.62252,-2.05385 -4.6213,-2.08375 -9.23864,-4.19718 -4.61716,-2.08061 -4.61561,-2.0453 -4.61397,-1.99174 -4.61226,-1.91962 -4.61047,-1.82896 -4.61434,-1.722 -4.60769,-1.59356 -4.60581,-1.4501 -4.60395,-1.29106 -4.60217,-1.11791 -4.60053,-0.93234 -4.59909,-0.73635 -4.59793,-0.53203 -4.59712,-0.32166 -4.596702,-0.10763 -4.5967,0.10763 -4.597121,0.32166 -4.597933,0.53203 -4.599089,0.73635 -4.600525,0.93234 -4.60217,1.11791 -4.603952,1.29106 -4.605808,1.4501 -4.607695,1.59356 -4.604795,1.71833 -4.612258,1.82948 -4.613974,1.92021 -4.615609,1.99237 -4.617161,2.04595 -4.618623,2.08126 -9.241317,4.19839 -4.6225,2.08428 -4.6462937,2.06465 c -0.5565003,-4.70189 -0.8371575,-9.44184 -0.8371575,-14.19565 0,-5.93265 0.4371113,-11.84373 1.301977,-17.6862 v 0 l 3.8920302,-0.61619 4.611373,-0.80899 4.611065,-0.89273 4.610833,-0.98038 4.610692,-1.07139 4.61065,-1.16505 4.610717,-1.26054 4.610898,-1.35691 4.611196,-1.45307 4.611611,-1.547801 4.612142,-1.639809 4.612784,-1.72767 4.613538,-1.809906 4.61439,-1.884975 4.61534,-1.951313 4.616381,-2.007368 4.61751,-2.051608 4.618728,-2.082586 9.241418,-4.19843 4.62287,-2.083167 4.62443,-2.049158 4.62605,-1.996855 4.62777,-1.925926 4.62956,-1.836305 4.62569,-1.72624 4.63234,-1.602078 4.63422,-1.459048 4.63608,-1.300072 4.63786,-1.126571 4.6395,-0.940248 4.64094,-0.743046 4.6421,-0.537135 4.64291,-0.324866 z"
       stroke="#ffffff"
       fill="#7db0bc"
       id="path702" />
    <path
       d="m 95.656768,115.98483 4.620012,0.10818 4.62002,0.32326 4.62001,0.53458 4.62002,0.7397 4.62001,0.9363 4.62002,1.12223 4.62001,1.29557 4.62002,1.45458 4.62001,1.59781 4.62002,1.72413 4.62001,1.83263 4.62002,1.92277 4.62001,1.9943 4.62002,2.04723 4.62001,2.08189 4.62002,2.09886 4.62001,2.09894 4.62002,2.08317 4.62001,2.05273 4.62002,2.00896 4.62001,1.95332 4.62002,1.88731 4.62001,1.8125 4.62002,1.73044 4.62001,1.64268 4.62002,1.55071 4.62001,1.45594 4.62002,1.35968 4.62001,1.26318 4.62002,1.16752 4.62001,1.07365 3.95438,0.84063 c -1.07933,3.46378 -2.31665,6.88281 -3.70978,10.24613 -6.04453,14.59279 -14.90476,27.85305 -26.0736,39.02189 -11.16884,11.16884 -24.4291,20.02907 -39.02189,26.0736 -14.59279,6.04453 -30.23434,9.15583 -46.02947,9.15583 -15.79512,0 -31.436669,-3.1113 -46.029462,-9.15583 C 67.374615,233.0773 54.114353,224.21707 42.945514,213.04823 31.776673,201.87939 22.91645,188.61913 16.871917,174.02634 12.834817,164.27992 10.106178,154.06567 8.7390486,143.6503 l 3.7574504,-1.66934 4.620015,-2.08317 4.620015,-2.09894 4.620015,-2.09886 4.620015,-2.08189 4.620015,-2.04723 4.620015,-1.9943 4.620015,-1.92277 4.620016,-1.83263 4.620014,-1.72413 4.620016,-1.59781 4.620013,-1.45458 4.620015,-1.29557 4.620015,-1.12223 4.620015,-0.9363 4.620015,-0.7397 4.620015,-0.53458 4.620015,-0.32326 z"
       fill="#5c7da2"
       id="path704" />
    <path
       d="m 104.8968,147.1301 v 15.49301 h 27.72009 v 21.39557 h 27.72009 v 14.63474 h 27.72009 v 6.17695 h 27.72009 l -1.4e-4,5.39858 c -0.89355,0.95383 -1.80324,1.89374 -2.72879,2.81928 -11.16884,11.16884 -24.4291,20.02907 -39.02189,26.0736 -14.59279,6.04453 -30.23434,9.15583 -46.02947,9.15583 -15.79512,0 -31.436669,-3.1113 -46.029462,-9.15583 C 67.374615,233.0773 54.114353,224.21707 42.945514,213.04823 34.473403,204.57612 27.329661,194.90062 21.73561,184.35294 l 9.19e-4,-14.435 H 49.45662 v -19.30672 h 27.720088 v -3.48112 z"
       fill="#444876"
       id="path706" />
    <path
       d="m 105.84326,146.18364 -3.7e-4,15.493 27.72046,1e-5 -4.6e-4,21.39499 27.72055,5.8e-4 -5.5e-4,14.63442 27.72064,3.1e-4 -6.4e-4,6.17669 27.72073,2.7e-4 9.7e-4,5.3217 c -0.62354,0.68128 -1.2552,1.35567 -1.89487,2.02302 l -6.9e-4,-5.45345 -25.82614,-5.4e-4 1.6e-4,25.88372 c -0.62794,0.36955 -1.25931,0.73344 -1.89404,1.09163 l 6e-5,-33.15142 -25.82618,-9.3e-4 -5e-5,43.98256 c -0.62984,0.18138 -1.26107,0.35758 -1.8936,0.52859 l -1.4e-4,-59.14441 -25.82621,-7.4e-4 -1.6e-4,63.18517 c -0.63095,0.0292 -1.26231,0.0535 -1.89403,0.0728 l 4.4e-4,-84.65292 -25.82625,-4e-5 1.2e-4,82.65116 c -0.63252,-0.11853 -1.26408,-0.24213 -1.89461,-0.37079 l 7.8e-4,-97.7739 H 78.122143 l -2.56e-4,1.58953 0.0013,1.2e-4 -0.0011,87.78516 c -0.633979,-0.28888 -1.265225,-0.58318 -1.893675,-0.88284 l 8.32e-4,-85.01089 H 50.402182 l -2.95e-4,17.41445 0.0012,8.4e-4 -0.0011,50.93022 c -0.636335,-0.53726 -1.267273,-1.08127 -1.892702,-1.63197 L 48.509259,170.864 H 22.68222 l -0.0012,15.23643 c -0.650661,-1.17934 -1.281741,-2.37004 -1.89292,-3.57159 l 0.002,-13.55736 27.719819,-8.4e-4 2.71e-4,-19.30588 27.719729,-1.2e-4 3.6e-4,-3.481 z"
       fill="#ffffff"
       id="path708" />
    <path
       d="m 127.99687,0 c 16.8084,0 33.45335,3.310886 48.98229,9.7431808 15.52893,6.4322972 29.63984,15.8609042 41.52517,27.7462362 11.88533,11.88533 21.31394,25.996237 27.74624,41.525174 6.2248,15.028002 9.52632,31.101179 9.73285,47.356209 l 0.0103,1.62607 -0.0103,1.62608 c -0.20653,16.25503 -3.50805,32.3282 -9.73285,47.35621 -6.4323,15.52893 -15.86091,29.63984 -27.74624,41.52517 -11.88533,11.88533 -25.99624,21.31394 -41.52517,27.74624 -15.52894,6.43229 -32.17389,9.74318 -48.98229,9.74318 -16.8084,0 -33.453344,-3.31089 -48.982279,-9.74318 C 63.485654,239.81827 49.374747,230.38966 37.489417,218.50433 25.604085,206.619 16.175478,192.50809 9.7431808,176.97916 3.310886,161.45022 0,144.80527 0,127.99687 0,111.18847 3.310886,94.543526 9.7431808,79.014591 16.175478,63.485654 25.604085,49.374747 37.489417,37.489417 49.374747,25.604085 63.485654,16.175478 79.014591,9.7431808 94.543526,3.310886 111.18847,0 127.99687,0 Z m 0,4.2029303 c -16.25647,0 -32.354871,3.2021714 -47.373889,9.4232537 C 65.603962,19.847265 51.956395,28.966278 40.461337,40.461337 28.966278,51.956395 19.847265,65.603962 13.626184,80.622982 7.4051017,95.641999 4.2029303,111.7404 4.2029303,127.99687 c 0,16.25647 3.2021714,32.35488 9.4232537,47.37389 6.221081,15.01902 15.340094,28.66659 26.835153,40.16165 11.495058,11.49506 25.142625,20.61407 40.161645,26.83515 15.019017,6.22109 31.117418,9.42326 47.373888,9.42326 16.25647,0 32.35488,-3.20217 47.37389,-9.42326 15.01902,-6.22108 28.66659,-15.34009 40.16165,-26.83515 11.49506,-11.49506 20.61407,-25.14263 26.83515,-40.16165 6.0204,-14.53453 9.21352,-30.07993 9.41327,-45.8012 l 0.01,-1.57269 -0.01,-1.57268 C 251.58108,110.70292 248.38796,95.157515 242.36756,80.622981 236.14648,65.603962 227.02747,51.956395 215.53241,40.461337 204.03735,28.966278 190.38978,19.847265 175.37076,13.626184 160.35175,7.4051017 144.25334,4.2029303 127.99687,4.2029303 Z"
       fill="#444876"
       id="path710" />
  </g>
</svg>
